<svg id="Ebene_1" data-name="Ebene 1" xmlns="http://www.w3.org/2000/svg" viewBox="0 0 153.1 102"><defs><style>.cls-1{fill:#80c41c;}.cls-2{fill:#fff;}</style></defs><title>Zeichenfläche 2</title><rect class="cls-1" width="153.1" height="102.05"/><path class="cls-2" d="M59.6,23.6l4.1.4c.5,0,1-.2,1.1-.5s.4-1.7.6-2.7.4-.4.6,0,1.1,1.9,1.7,3.1a2.6,2.6,0,0,0,1.4.9l3.8.9c.5.1.6.4.2.5l-2.8.9c-.4.2-.5.6-.3,1.1l1.5,3.2c.2.4,0,.5-.4.1A40.8,40.8,0,0,0,67.8,29a1.5,1.5,0,0,0-1.4-.2l-2.9,1.3c-.3.2-.6.1-.5-.3l.8-2.7c.1-.3-.2-.8-.7-1.1a25.3,25.3,0,0,0-3.6-2c-.5-.3-.4-.5.1-.4"/><path class="cls-2" d="M43.7,35.2l4.4-.8a1.5,1.5,0,0,0,1.2-.7l1-2.8c.1-.4.4-.4.6,0s1,1.5,1.6,2.6a1.8,1.8,0,0,0,1.3.6l3.9-.3c.5,0,.6.2.2.4l-3,2a.8.8,0,0,0-.3,1c.5,1.1.8,1.6,1.4,2.7s0,.5-.5.3a20.6,20.6,0,0,0-3.3-1.7,2.2,2.2,0,0,0-1.6,0l-3.4,2.1c-.4.3-.7.3-.5-.2s.8-1.7,1.2-2.8-.1-.8-.6-1l-3.8-1c-.5-.1-.4-.3.2-.4"/><path class="cls-2" d="M35.3,50a31.7,31.7,0,0,1,4.3-.2,1.7,1.7,0,0,0,1.4-.7,29.2,29.2,0,0,0,2.1-2.8c.3-.3.5-.3.6.1s.2,1.7.3,2.9a1.2,1.2,0,0,0,1,.8l3.6.6c.5.1.5.3,0,.4l-3.4,1.3c-.5.2-.9.6-.9,1v3c0,.4-.2.5-.5.2l-2.3-2a1.8,1.8,0,0,0-1.6-.1L36,56.3c-.5.2-.7.1-.4-.3S37,54.2,38,53.1a.8.8,0,0,0-.1-1.1l-3-1.6c-.3-.2-.2-.4.4-.4"/><path class="cls-2" d="M63.9,69.7a27,27,0,0,0-3.1,2,1.1,1.1,0,0,0-.5,1.3c.3,1.4.4,2.1.7,3.6s-.1.7-.5.4l-2.6-2.2a1.1,1.1,0,0,0-1.4.1,34.9,34.9,0,0,0-3.2,2.5c-.4.3-.6.2-.4-.3l1.5-3.8a1.3,1.3,0,0,0-.3-1.3l-2.9-1.8c-.3-.2-.2-.4.3-.5l3.7-.4a1.5,1.5,0,0,0,1.2-.8,34.5,34.5,0,0,1,1.4-3.4c.1-.4.4-.4.5,0l.8,3.2a1.1,1.1,0,0,0,1.1.8,20.5,20.5,0,0,1,3.5.1c.5,0,.5.3.2.5"/><path class="cls-2" d="M83.1,71.9l-2.6.8a.8.8,0,0,0-.4,1l1.2,3.2c.2.4,0,.5-.4.2l-2.8-2.6a1.1,1.1,0,0,0-1.2-.3,15.9,15.9,0,0,0-2.7,1.2c-.4.1-.6-.1-.4-.4l1-2.8a1.6,1.6,0,0,0-.4-1.3l-2.7-2.7c-.3-.3-.2-.5.2-.3l3.3,1c.4.1.8,0,.9-.4l1-2.5c.1-.3.3-.2.4.2l1.1,3.1a1.7,1.7,0,0,0,1,1l3.3,1.1c.4.1.5.3.2.5"/><path class="cls-2" d="M100.3,66.8l-2.8,1.1c-.4.1-.5.5-.3.9l1.5,3.1c.2.4,0,.5-.4.1a23.3,23.3,0,0,1-3.2-2.5,1.8,1.8,0,0,0-1.3-.4l-2.7.8c-.3.1-.5-.1-.4-.4s.4-1.5.8-2.6-.2-.9-.6-1.3-1.7-1.7-2.9-2.9-.3-.5.1-.3l3.5,1.3a.7.7,0,0,0,1-.3l.8-2.5c.1-.3.4-.2.5.2l1.3,3.3a2.6,2.6,0,0,0,1.2,1.1l3.7.8c.5.1.6.3.2.5"/><path class="cls-2" d="M111.5,55.3l-2.7,1.8a.7.7,0,0,0-.3.9c.5,1,.7,1.5,1.2,2.4s0,.4-.4.2L106.6,59a1.5,1.5,0,0,0-1.3-.2l-2.4,1.1c-.3.1-.5,0-.4-.3l.8-2.2a1.3,1.3,0,0,0-.4-1.1,27.5,27.5,0,0,1-2.6-2.2c-.3-.3-.3-.4.1-.3l3.1.6a.8.8,0,0,0,1-.5c.3-1,.5-1.5.9-2.6s.3-.4.4,0,.7,1.7,1.1,2.9a1.2,1.2,0,0,0,1.1.7,19.3,19.3,0,0,0,3.4,0c.4,0,.5.2.1.4"/><path class="cls-2" d="M120.7,38,118,40.7a1.3,1.3,0,0,0-.4,1.1,21.8,21.8,0,0,1,.9,2.3c.2.3,0,.4-.3.4a14.7,14.7,0,0,1-2.5-.8,1.4,1.4,0,0,0-1.2.4c-1,.9-1.6,1.3-2.5,2.2s-.4.2-.3-.2.6-1.7,1-2.8a.9.9,0,0,0-.3-1,16.7,16.7,0,0,1-2.3-1.2c-.3-.2-.2-.4.1-.4l3-.6a1.4,1.4,0,0,0,.9-.9c.5-1.2.7-1.9,1.1-3.1s.4-.5.5-.2.4,1.6.7,2.6a.7.7,0,0,0,1,.3,19.8,19.8,0,0,0,3.1-1.2c.4-.1.5,0,.2.4"/><path class="cls-2" d="M100.8,26.5h2.8a1.3,1.3,0,0,0,.8-.8l.8-3c.1-.5.3-.5.4-.1l1,2.9a1,1,0,0,0,.9.6h2.9c.4-.1.5.1.1.3l-2.3,1.8a1.1,1.1,0,0,0-.3,1.1l1,2.5c.1.3-.1.4-.4.2l-2.3-1.3a1.1,1.1,0,0,0-1.1.1,18.1,18.1,0,0,1-2.1,1.8c-.3.2-.4,0-.3-.3s.4-1.5.7-2.6a1.1,1.1,0,0,0-.4-1,18.1,18.1,0,0,1-2.3-1.8c-.3-.2-.2-.4.1-.4"/><path class="cls-2" d="M80.8,22.7l3.2.9a.8.8,0,0,0,.9-.4c.3-1,.5-1.5.9-2.6s.3-.3.4.1.7,1.9,1.1,3.2a1.5,1.5,0,0,0,1,.9l3.1.9c.4.1.5.4.1.5l-2.5,1a.6.6,0,0,0-.3.9c.3,1.2.5,1.8.9,3s0,.4-.4.1l-2.4-2.4a1.1,1.1,0,0,0-1.1-.4l-2.4.7q-.5.1-.3-.3a20.9,20.9,0,0,1,.8-2.3,1.1,1.1,0,0,0-.5-1.1L80.7,23c-.4-.3-.3-.4.1-.3"/><path class="cls-2" d="M130.6,21.9l-2.4,2.2a1,1,0,0,0-.4,1,10.1,10.1,0,0,0,.9,1.8c.1.2-.1.4-.4.4l-2.5-.4a1.3,1.3,0,0,0-1.1.4L122,29.7c-.3.3-.5.3-.3-.1s.7-1.6,1.1-2.7.1-.8-.2-.8l-2.3-.9c-.3-.1-.2-.3.1-.4l3.1-.9a1.6,1.6,0,0,0,.9-.9l1.2-2.8c.1-.3.3-.4.4-.1a14.2,14.2,0,0,0,.7,2.2.6.6,0,0,0,.8.3l2.9-.9c.4-.2.5,0,.2.2"/><path class="cls-2" d="M89.7,41.9c.7-.1.8-.5,0-.4S72.4,45.2,58.6,53.3,39,66.4,35.8,68.9c-.9.6-1.5.7-1.6.2s-.9-2.1-1.3-3.4-.5-.3-.6.2-.9,3-1.4,4.7a3.4,3.4,0,0,1-1.4,1.8l-3.6,2.5c-.4.3-.7.6.2.8l2.2.4c.9.2.6.8.5,1.3s-.5,2.2-1,3.8,0,.6.4.1l3.2-3.2c.5-.6,1-1.2,1.5-1.1l3.4.6c.9.2.9-.2.6-.7l-1-2.8c-.1-.4-.2-1.3.3-1.7C44.1,64.7,47.4,62.1,58.3,55,66.8,49.5,78.2,45.1,89.7,41.9Z"/></svg>