<svg id="bis_bald" xmlns="http://www.w3.org/2000/svg" viewBox="0 0 182.1 141.4"><title>Zeichenfläche 1</title><path d="M178.5,82.2a1.7,1.7,0,0,0-2.2.9,3.6,3.6,0,0,1-.4.9,20.5,20.5,0,0,1-5.1,7.2c-3.4,2.9-7.9,1.7-9.3-2.5a12.7,12.7,0,0,1-.6-1.8,32.5,32.5,0,0,0-.8-4.5c-.5-2.1-2.6-2.7-4-1.1a15.5,15.5,0,0,0-2.1,3.5c-.3.8-.5,1.6-.8,2.5l-.4-.6a2.6,2.6,0,0,0-4.7.3,7,7,0,0,0-.6,1.7l-.9,8.9c-.1,1.2-.3,2.4-.5,3.6h-.4c-1.6-2.3-1.6-5.5-3.9-7.4.1-.2.2-.3.2-.5a2.4,2.4,0,0,0-.3-3,2.3,2.3,0,0,0-3.1-.1,11.4,11.4,0,0,0-3,3.2,68.2,68.2,0,0,0-3.4,6.6,12.3,12.3,0,0,1-.8,1.2,16.7,16.7,0,0,0-.6-2c-1.7-5.3-1.8-10.7-1.3-16.2.1-.8.2-1.5,1.1-1.9a1.6,1.6,0,0,0,.2-2.8,2.4,2.4,0,0,0-3.7.5,6.2,6.2,0,0,0-.9,2.6A75.1,75.1,0,0,0,126,93c.3,3.7,1.6,7.3,2.4,11a2.5,2.5,0,0,1-.2,1.7,4.7,4.7,0,0,0,.2,4.6l1.3,2.5c1.3,2.6,1.5,5.5,1.8,8.3s.5,5.4.9,8.1a1.9,1.9,0,0,0,2,1.9,2,2,0,0,0,1.7-2.1,60.1,60.1,0,0,0-.4-7.4c-.7-4.5-1.5-9-2.6-13.5a4.6,4.6,0,0,1,1.3-4.5c.7,2.4,1.4,3.1,3.3,3.3s4.2-1.3,4.8-4.2l.7,1a3.6,3.6,0,0,0,6.1-1.2,9.4,9.4,0,0,0,.6-2.4l.6-6.3a1.9,1.9,0,0,1,.2.8l.6,5.1a1.9,1.9,0,0,0,2,1.6,1.9,1.9,0,0,0,1.9-1.5l.3-1.6.9-7.9c.2-1.1.4-2.2.7-3.6.6,1.8,1,3.2,1.5,4.6a7.4,7.4,0,0,0,5.3,4.6c3.7.8,7.2.3,9.9-2.6a57.1,57.1,0,0,0,4.9-6.9,5.8,5.8,0,0,0,.9-2.3A1.7,1.7,0,0,0,178.5,82.2ZM139,103.3c-.2.2-.5.2-1-.1a4.4,4.4,0,0,1,.4-4.5.9.9,0,0,1,1.1,0A3.3,3.3,0,0,1,139,103.3Z"/><path d="M32.7,79.7a3.1,3.1,0,0,0-3.5-2.3,35.4,35.4,0,0,0-4.5.8l-5,.6v-.4a17.4,17.4,0,0,1,1.1-1.8c1.7-2.7,3.6-5.4,5.3-8.2a9.9,9.9,0,0,0,1.3-5.6c-.2-2.2-1.2-3.4-3.4-3.2a28.5,28.5,0,0,0-5.8,1.2A26.7,26.7,0,0,0,2.9,73c-.7,1.2-.5,2.3.4,2.8s1.9.2,2.6-.9S7,73.1,7.7,72.2s2.2-2.3,3.4-3.7c1.2,8.3,1.1,16.3.9,24.3,0,1.9,0,3.8.1,5.6s.7,2,1.8,2,1.6-.8,1.7-1.9v-.6c0-3.7.1-7.4.1-11.1V81.2a10.9,10.9,0,0,0,2.3.9,16.7,16.7,0,0,0,8-.6,13.2,13.2,0,0,1,2.6-.5,1.4,1.4,0,0,1,1,.7,22.3,22.3,0,0,1,.5,3.6A8.9,8.9,0,0,1,28.9,91a24.8,24.8,0,0,1-6.6,6.7c-3.2,2.1-6.6,4-10.7,3.8-.9-.1-1.7.8-1.8,1.8a1.8,1.8,0,0,0,1.5,2,4.3,4.3,0,0,0,1.6,0A28.5,28.5,0,0,0,31.3,93.8C34.6,89.4,34.2,84.6,32.7,79.7ZM15.6,77.8c-.3-3.2-.6-6.4-.8-9.7s-.2-2,1.6-2.8a45.6,45.6,0,0,1,5.2-1.8,11.7,11.7,0,0,1,2.3-.3,20.7,20.7,0,0,1-.9,3.2c-.9,1.7-2,3.4-3,5Z"/><path d="M117.9,56.2a1.3,1.3,0,0,0-1.9.5c-.6.9-1.2.7-1.6.2a41.5,41.5,0,0,1-2.7-3.2,3.9,3.9,0,0,1-.5-3.2,96.7,96.7,0,0,0,2.2-24,18.1,18.1,0,0,0-1.2-5.1,2.4,2.4,0,0,0-2.6-1.9,2.7,2.7,0,0,0-2.6,2,31.7,31.7,0,0,0-1.2,4.4c-1.1,5-.9,10.2-.9,15.4a21.1,21.1,0,0,0,1.5,9c1,2.2.3,4-.8,5.9a2.1,2.1,0,0,1-2.8.9,1.8,1.8,0,0,1-1.3-2.1c0-1.6.1-3.3,0-4.9s-1.2-2.2-2.7-1.7a2.1,2.1,0,0,1-1.1.1,4.2,4.2,0,0,0-4.4,2A16.8,16.8,0,0,0,90.7,60a3.1,3.1,0,0,0,2.5,3,5.7,5.7,0,0,0,6.2-2.1l.7-1.1c4.1,2,5.8,1.5,9-2.4l2.7,2.1a5.4,5.4,0,0,0,5,1.2A2.7,2.7,0,0,0,119,58,2.9,2.9,0,0,0,117.9,56.2ZM97.8,54.4a33.8,33.8,0,0,1-1.3,4.2,1.7,1.7,0,0,1-2.2.9A12.9,12.9,0,0,1,96.7,52,2,2,0,0,1,97.8,54.4Zm10.8-10.8c-.1-6-.5-11.9.9-17.9C110.3,27.2,109.7,39.8,108.6,43.6Z"/><path d="M89.2,59.9a6.1,6.1,0,0,0-3.1-4.5,7.8,7.8,0,0,0-9.3,2.8,9.2,9.2,0,0,0-.9,1.3V58.4c0-3.6.1-7.3.1-11s.1-7.1.1-10.7a1.8,1.8,0,0,0-2-2c-1.2.1-1.8,1-1.7,2.3a15.5,15.5,0,0,1,.1,2.2c-.1,8.4-.2,16.8-.2,25.3a41.9,41.9,0,0,0,.3,5c.1.7.7,1.3,1,2a2.8,2.8,0,0,1,.7,1.3c.5,2.7,2.1,4,4.8,3.6a9.8,9.8,0,0,0,3.4-1.2A14,14,0,0,0,89.2,59.9ZM80.3,72.3a7.1,7.1,0,0,1-2.2.5,7,7,0,0,1,0-2.5A2.7,2.7,0,0,0,78,68c0-.1-.1-.3-.1-.4.6-2.4,1-4.9,1.8-7.3S83,58,84.5,58.8a2.5,2.5,0,0,1,1.1,1.5c.2,1,.3,2,.4,3C86,67.6,83.5,70.2,80.3,72.3Z"/><path d="M137.9,51.2a1.8,1.8,0,0,0-2.1.1,2.8,2.8,0,0,1-1.8.4c-2.1-.4-3.3-1.9-4.2-3.7a20.1,20.1,0,0,1-1.9-9.4c.2-7,.3-14,.4-20.9a3.4,3.4,0,0,0-.2-1.5,2.8,2.8,0,0,0-1.6-1.1c-.5,0-1.2.6-1.6,1a3,3,0,0,0-.2,1.4c-.2,5.7-.3,11.4-.4,17.1,0,.4-.1.7-.1.9-2.7.7-3.6,1.4-4.7,4a20.6,20.6,0,0,0-1.7,9.5c.1,2.5,1.8,3.8,4.3,3.2a4.8,4.8,0,0,0,2.9-2.3l1-1.7.6,1.3c1.8,3.6,4.5,6,8.8,5.9a3.2,3.2,0,0,0,3.2-2.1A1.8,1.8,0,0,0,137.9,51.2Zm-16.6-2.8a18.3,18.3,0,0,1,2.5-9.3C124.5,41.4,122.8,47.5,121.3,48.4Z"/><path d="M92.2,123a5.6,5.6,0,0,1,0,1.3c.2,4.6-1.9,8-5.2,10.9a7.1,7.1,0,0,1-4.4,1.9,3.4,3.4,0,0,1-3.9-2.5,19.9,19.9,0,0,1-.4-4.2,1.8,1.8,0,0,1,2-1.9c.9.1,1.5.9,1.5,2.1v1.6c.2,1.4.7,1.7,2,.9a9.9,9.9,0,0,0,4.6-6.3,15.7,15.7,0,0,0-.2-6.8,5.9,5.9,0,0,0-3.8-4l-3.9-1.3c-2.7-1-3.5-2.3-3.3-5.2a19,19,0,0,1,4.9-11.8,5.3,5.3,0,0,1,4.7-2c1.2.1,2,.7,2.1,1.7A1.8,1.8,0,0,1,87,99.2a3.5,3.5,0,0,0-2.9,1.5,18,18,0,0,0-3.4,8.9,1.7,1.7,0,0,0,1.3,1.9l2.2.7C89.6,113.9,92.1,117.3,92.2,123Z"/><path d="M124.9,113.1a1.8,1.8,0,0,0-2.6-.3,9.5,9.5,0,0,0-2.1,1.9c-1.7,1.9-3.7,1.7-5.9,1a1.1,1.1,0,0,1-.7-.8c0-1.2.1-2.5.2-3.7a6.8,6.8,0,0,0,2.3-.4c2.4-1.3,4.9-4,4.8-7.5a2.2,2.2,0,0,0-2.3-2.3c-3.1-.3-5.1,1.3-6.4,3.9a21,21,0,0,0-2.2,10.4,3.6,3.6,0,0,0,2.1,3.3,8.6,8.6,0,0,0,10.5-1.4l1.9-1.7A1.7,1.7,0,0,0,124.9,113.1Zm-9.8-7.5c1.1-1.1,2.3-1.7,2.8-1.2s.1,1.8-.9,2.9-2.3,1.7-2.8,1.2S114.1,106.8,115.1,105.6Z"/><path d="M104.9,116.1c0,2.4-.1,4.9-.3,7.4a2.3,2.3,0,0,1-2,2.2,2.2,2.2,0,0,1-2.3-1.9c-.5-2.3-.9-4.7-1.2-7s-.5-1.5-1.5-1.3l-1.9.3a1.8,1.8,0,1,1-1.4-3.4l4.2-2.3c-.5-3.5-1.1-7.2-1.7-10.8,0-.3-.2-.6-.2-.8a1.8,1.8,0,0,1,1-2.2,1.8,1.8,0,0,1,2.3,1.1,11.8,11.8,0,0,1,.8,3.1c.5,3.6.9,7.3,1.4,10.9a1.7,1.7,0,0,0,.8,1.2A3.8,3.8,0,0,1,104.9,116.1Z"/><path d="M156.9,44.1a1.6,1.6,0,0,1-2.4-.4,5.5,5.5,0,0,1-1-2.2,88.4,88.4,0,0,1-2.2-17.7V5.3c0-1.2.5-2,1.5-2.1a1.9,1.9,0,0,1,2,1.8,6.6,6.6,0,0,1,.1,1.4V18.1a82.6,82.6,0,0,0,2,22,12.7,12.7,0,0,0,.6,1.8A1.7,1.7,0,0,1,156.9,44.1Z"/><path d="M57.7,79.5a4.5,4.5,0,0,1-2.2,3.8,7,7,0,0,1-5.8,1,4.1,4.1,0,0,1-2.8-2.5,1.7,1.7,0,0,1,.8-2.2,1.6,1.6,0,0,1,2.1.4,1.9,1.9,0,0,0,2.3.8A3,3,0,0,0,54,79.5a2.1,2.1,0,0,0-.7-2.6,7.6,7.6,0,0,0-1.8-.9l-3.1-.9c-2.1-.8-2.9-2.3-2.1-4.5a10.3,10.3,0,0,1,5.2-5.3,2.3,2.3,0,0,1,1.8.1,2.5,2.5,0,0,1,1.1,1.7,2.2,2.2,0,0,1-1.2,1.5,5.8,5.8,0,0,0-3.3,3.2c1.2.4,2.5.7,3.7,1.2A6,6,0,0,1,57.7,79.5Z"/><path d="M41.6,87.5a1.8,1.8,0,0,1-1.4,2,1.9,1.9,0,0,1-2.2-1,4,4,0,0,1-.3-1.5c-.1-4.7-.2-9.5-.2-14.2v-.6c.1-1.2.7-1.9,1.7-1.9A1.8,1.8,0,0,1,41,72.1c.2,2.1.2,4.2.3,6.3v.9h-.1C41.3,82,41.5,84.7,41.6,87.5Z"/><path d="M160.9,52.9a1.8,1.8,0,0,1-1.7,2,1.7,1.7,0,0,1-1.7-1.8,1.7,1.7,0,0,1,1.7-1.9A1.7,1.7,0,0,1,160.9,52.9Z"/><path d="M41.3,61.7a1.7,1.7,0,0,1-1.6,1.7,1.8,1.8,0,0,1-1.8-1.7A1.5,1.5,0,0,1,39.5,60,1.8,1.8,0,0,1,41.3,61.7Z"/></svg>