<svg id="croissant" xmlns="http://www.w3.org/2000/svg" viewBox="0 0 150.9 164"><title>Zeichenfläche 1</title><path d="M146.8,107.2c-.4-7.8-7.9-13.8-15.5-10.1a17.3,17.3,0,0,0-4.1,3c-.9,1-2,3.5-3.2,3.9s-8.9-3.6-11.8-4.5-8.7-1-13-1.2c-1.3,0-5.9.5-7-.2s-1.6-4.6-2-6.4c-1.9-8.2-4.2-15.3-8.9-22.4S68.9,59.2,61.1,56c-4-1.6-3.4-2.3-3.5-6.5s-1.2-7.9-2.8-12.1-1.7-6.8-4.6-9.1-3.7-1.4-3.8-3.5,1.2-3.3,1.6-4.5c2.1-6.8,3.9-14.5-4.9-16.5A16.2,16.2,0,0,0,32.7,5.3c-3.2,1.6-3.7,4.2-5.5,7.1S22.4,20,21,24.4a37.5,37.5,0,0,0-1.3,5.8c-.3,1.2-.3,2.9-.7,4.1l-.4,2.1-1,.2c-2.8,5.2-8,10.6-10.5,16.5S3.7,71,5.5,78.4c1.1,4.3,3.2,8,5.4,11.7s2.6,6.5,2.8,11.7c.4,8.6,4.7,17,8.4,24.6s8.5,14.1,16,19.3,15.8,4.9,23.8,7.7c4.6,1.7,8.8,4.3,13.6,5.4a53.3,53.3,0,0,0,14.4,1.3,28.8,28.8,0,0,0,14.1-4.9c4.6-2.9,7.9-2.5,13.2-2.9,10.4-.8,17.6-7.2,22-16.3,2.2-4.4,3-9.2,4.6-13.7S147.1,112.9,146.8,107.2Zm-6.2,13.4c-1.8,3.1-1.7,7.3-3,10.6a46,46,0,0,1-6.4,10.7c-5,6-12.8,7.3-20.3,6.8,1.2-1.6,4.1-4.1,3.1-6.4s-3.3,0-4.3,1.5c-2.5,3.7-6.1,7.7-10,9.6-11.5,5.9-23.5,2.3-34.9-2.2,1.1-1,7.3-5.8,2.8-6.8-1.7-.4-4.9,4.3-7.1,4.7-6.6,1.2-16.9-3.5-21.8-7.6-3-2.4-6.5-4.8-8.8-7.9s-4-7.5-5.6-11.1c-3.5-7.5-8.1-16.1-6.9-24.6,1.8,1,7.2,5.4,9.4,4.8,4.9-1.5-4.7-6.1-5.7-6.7-6-3.5-9.8-10.4-11.7-16.9s-1.9-16.3.2-22.6c1.2-3.6,3.5-6.7,5.7-9.6s3.6-6.4,7.4-6.4c1.6-.1,6.7,2,6.4-1.1-.1-1.5-1.7-1.8-2.9-2.1s-3.3.4-3.6-2.8c-.8-7.7,5.1-15.5,8.6-21.8,1.5-2.7,2.3-4,5.4-5s7.3-1.5,9.1,1.2-.3,7.6-.9,9.8-1.3,5.8-5.1,4.9c-1.5-.4-4-2.1-5.5-1.5a2.1,2.1,0,0,0-.9,3.6c.9,1,4.5,1,5.8,1.4s4.2,1.6,6.2,2.5C53.2,33.2,54,46.1,54,53.7c-1.7-.2-6.1-1.5-7.7-.8s-2.4,2-.4,3.4,8.9,1,12,2.1C65.1,61,73.5,64,78,70.7s7.7,16,9.4,25c.7,3.3.5,3.1-2.7,3.7-1.6.3-4.4.4-5.8,1.3s-2.1,1.8-1.3,3.2,2.8.3,4.3-.3c8.1-3,19.6-2.8,27.9-1a41.4,41.4,0,0,1,10.7,4.3c1.7,1,5.6,7.2,7.6,6.2s-1-4-1.2-5.4.7-2.8,2.1-4.2,4.8-4.4,8.3-3.8C146.2,101.3,143.8,115.1,140.6,120.6Z"/><path d="M53.9,138.4c0,1.9-2.5,2.7-3.3.9S53.8,135.5,53.9,138.4Z"/><path d="M46.1,132.9c0,2.4-3.4,2.1-3.6-.1S46.1,130.6,46.1,132.9Z"/><path d="M30.5,114.8c0,2.5-3.2,2.1-3.4-.1S30.6,112.5,30.5,114.8Z"/><path d="M63.5,131.3c.1,2.2-3.3,2.3-3.4.1S63.5,129,63.5,131.3Z"/><path d="M83.1,131.6a1.7,1.7,0,0,1-3.4,0A1.7,1.7,0,0,1,83.1,131.6Z"/><path d="M123.8,143.4c0,2.2-3.5,2.2-3.5,0S123.8,141.2,123.8,143.4Z"/><path d="M128.2,142.6a1.7,1.7,0,1,1-3.3,0A1.7,1.7,0,1,1,128.2,142.6Z"/><path d="M19.7,55.8c-.1,2.2-3.6,2-3.4-.2S19.8,53.6,19.7,55.8Z"/><path d="M24.3,85.5a1.7,1.7,0,1,1-3.3.1A1.7,1.7,0,1,1,24.3,85.5Z"/><path d="M45.6,141.8c-.1,2.2-3.5,2.1-3.4-.1S45.7,139.6,45.6,141.8Z"/><path d="M97.8,152c0,2.2-3.5,2.1-3.4-.1S97.9,149.8,97.8,152Z"/><path d="M26.8,81.3c0,2.3-3.4,2.1-3.4-.1S26.9,79.2,26.8,81.3Z"/><path d="M31.6,90.7c.1,2.2-3.3,2.2-3.3,0A1.7,1.7,0,0,1,31.6,90.7Z"/><path d="M88.1,149a1.6,1.6,0,1,1-3.1,0C85,146.9,88.2,147,88.1,149Z"/><path d="M45.8,119.1c0,2-3.2,2-3.2-.1S45.8,117,45.8,119.1Z"/><path d="M129.8,133.2c0,2-3.2,2.1-3.2,0S129.8,131.2,129.8,133.2Z"/><path d="M17.5,81.3a1.6,1.6,0,1,1-3.1.1C14.3,79.4,17.5,79.3,17.5,81.3Z"/><path d="M59.8,105.4c0,2.1-3.2,1.9-3.1-.1A1.6,1.6,0,0,1,59.8,105.4Z"/><path d="M73,149.2c0,2-3.1,2-3.2,0A1.6,1.6,0,0,1,73,149.2Z"/><path d="M98.4,147c0,2-3.2,2.1-3.2,0S98.4,145,98.4,147Z"/><path d="M33.8,130.3c.1,2-3.1,2.1-3.1.1A1.6,1.6,0,1,1,33.8,130.3Z"/></svg>