<svg id="Ebene_1" data-name="Ebene 1" xmlns="http://www.w3.org/2000/svg" viewBox="0 0 297.6 297.3"><defs><style>.cls-1{fill:#f9f4f1;}</style></defs><title>Zeichenfläche 1</title><path class="cls-1" d="M208.2,92.8l.3.5h.1Z"/><path class="cls-1" d="M269.7,72.5a2.2,2.2,0,0,0-.6.7,2.2,2.2,0,0,0,1-1.1Zm-9.1-5.8c-.2.1-.2.1-.3.3a1.6,1.6,0,0,1,2,.4,1.7,1.7,0,0,1-.1,1.9l.3-.2a1.5,1.5,0,0,0,.2-2.2A1.4,1.4,0,0,0,260.6,66.7Zm-1.9,6.4h0a1.7,1.7,0,0,1,1.4.7,1.6,1.6,0,0,1-.4,2.1,1.2,1.2,0,0,0,.9-.3,1.6,1.6,0,0,0-1.9-2.5Zm-4.7-7a1.5,1.5,0,0,1,1.1.7,1.5,1.5,0,0,1-.4,2.1l-.5.3a1.5,1.5,0,0,0,1.1-.4,1.5,1.5,0,0,0,.2-2.2A1.4,1.4,0,0,0,254,66.1Zm-6.4-7.7a8.6,8.6,0,0,0,6,1.5,8.6,8.6,0,0,1-5.8-1.7ZM208.5,93.3h.1l-.4-.6Z"/><path class="cls-1" d="M22.3,185.8a1.7,1.7,0,0,0-2-1,1.6,1.6,0,0,0-1,2v.2l1,.8h.8A1.6,1.6,0,0,0,22.3,185.8Z"/><path class="cls-1" d="M42.6,65.3h-.1l.7-.6.6-1A4.4,4.4,0,0,1,42.6,65.3Z"/><path class="cls-1" d="M290.7,155.9c-3-.2-7.6-3.5-8-7.8h.5a4.5,4.5,0,0,1-.1-1.1c0-3.4,5.7-8.1,7.4-8.3s3.4-.4,2.4-9.1-1.6-9.3-4.8-9a9.7,9.7,0,0,1-9.1-5.2h.1a2.6,2.6,0,0,1-.3-1.1c-.7-3.3,3.9-9.1,5.5-9.7s3.3-1.1.4-9.4-3.5-8.8-6.5-7.7-9.3-.4-10.8-4.9h-.1l-1.4.5c-.6-3.4,1.7-8.8,2.9-9.7h.2c.3-.5.5-.8.8-.9h.2c.5-1.1,0-3.1-3.4-8-5.1-7.2-5.9-7.5-8.5-5.6a10,10,0,0,1-4.6,1.3,8.5,8.5,0,0,1-6-1.5l.2-.2h0l-.8-.8c-2.1-2.7-.9-9.9.3-11.2s2.4-2.5-4.1-8.4-7.3-6.1-9.4-3.8-8.4,4.1-11.9.8h-.1c-2.4-2.4-3.4-8.5-2.7-10s1.3-3.1-6.7-6.6-8.9-3.3-10.2-.4-5.8,6.1-9.9,5v-.4l-1.1-.3c-3.2-1.2-5.8-8-5.5-9.7s.7-3.4-7.8-5.2-9.4-1.5-10.1,1.6-4,6.6-7.9,6.9h-1.1c-3.4-.5-7.4-6.7-7.4-8.4s0-3.4-8.8-3.4-9.4.4-9.4,3.6S129.8,16,125,16h-.1c-3.4-.1-8.3-4-8.8-5.5s-1.1-3.2-9.4-.3-8.8,3.6-7.7,6.6A10.1,10.1,0,0,1,96.8,26v-.3l-1,.5C92.5,27.5,86,24,85.1,22.5s-1.6-3-9.3,1.3-8,5-6.5,7.8,1.4,7.6-1.4,10.4h0l-.9.6c-2.8,1.9-9.9-.1-11.1-1.4s-2.2-2.6-8.8,3.2-6.8,6.6-4.7,9a10,10,0,0,1,.8,10.4l-.6.9a2.3,2.3,0,0,1-.7.7c-2.6,2.1-8.8,2.4-10.2,1.7s-3-1.7-7.3,5.9S20.2,81.5,23,83.1s5.4,6.3,3.9,10.4l-.4-.2a4.9,4.9,0,0,1-.4,1.1c-1.5,3-8.6,4.9-10.2,4.4s-3.3-1.1-6,7.3-2.4,9.1.6,10.1a9.6,9.6,0,0,1,6,8.6h0c-.1.4-.1.8-.2,1.1-.8,3.3-7.4,6.7-9.1,6.5s-3.4-.4-4.3,8.4-.5,9.4,2.7,9.7,8.2,4.3,7.7,9h.1c-.5,3.4-4.9,7.8-6.4,8.2s-3.3.8-1.3,9.3c1.2,5,2,7.3,3,8.1-1,.9-1.3,2.8.7,8.8,2.7,8.3,3.3,8.9,6.4,7.9s7.6.2,9.9,3.4h-.1a3.1,3.1,0,0,1,.5,1c1.3,3.1-2.1,9.6-3.6,10.5s-3,1.7,1.4,9.3,5.1,7.9,7.9,6.4,7.5-1.4,10.4,1.2l.8.8a5.6,5.6,0,0,1,.5.8c1.5,3,.6,9.1-.4,10.3s-2.3,2.6,4.4,8.3,7.5,5.8,9.6,3.4,7.9-4.2,11.5-1.4v.2l.9.6c2.7,2.1,3.1,9.4,2.2,10.9s-1.7,3,5.9,7.4,8.4,4.3,10,1.6a9.7,9.7,0,0,1,9.7-4.1h0l1,.3c3.1,1.5,5,8.6,4.4,10.3s-1,3.2,7.3,5.9,9.2,2.5,10.1-.5,4.6-6.1,8.6-6h1.1a3.2,3.2,0,0,1,.9.3c3.2,1.2,6.6,6.3,6.7,7.9s0,3.4,8.8,3.2,9.5-.7,9.4-3.9,2.7-7.9,6.9-8.7v.4l1.1-.2c3.4-.3,8.7,4.9,9.1,6.6s.7,3.3,9.3,1.4,9.1-2.6,8.4-5.7.9-7.6,4.3-9.5h.1l1-.4c3.3-1,9.5,3,10.2,4.5s1.4,3.2,9.4-.5,8.4-4.4,7.1-7.3-.8-7.6,2.2-10.2h0a2.7,2.7,0,0,1,.8-.7l.8-.5c3.2-1.2,9.2.2,10.3,1.3s2.4,2.5,8.7-3.6,6.4-6.9,4.2-9.2a10.2,10.2,0,0,1-1.8-9.2l.2.2.7-.9c2.4-2.4,9.7-2,11.1-1s2.8,2,8-5.1,5.1-7.9,2.5-9.8-4.3-6.3-3-10h0l.5-1c1.8-2.9,9.1-4,10.7-3.3s3.1,1.4,6.7-6.6,3.4-8.9.4-10.1-5.5-5.2-5-9.1a3.7,3.7,0,0,1,.1-1.1l.3-.9c1.5-3,7.1-5.9,8.6-5.8s3.5.3,4.1-8.5S293.9,156.2,290.7,155.9ZM285.8,129a1.6,1.6,0,0,1,.4,3.1,1.6,1.6,0,0,1-1.8-1.4A1.6,1.6,0,0,1,285.8,129ZM18.2,179a1.5,1.5,0,0,1,1.1-1.9,1.6,1.6,0,0,1,1.9,1.1,1.5,1.5,0,0,1-1.2,1.9A1.5,1.5,0,0,1,18.2,179Zm-.9-10.3a1.6,1.6,0,0,1,1.9,1.2,1.5,1.5,0,0,1-1.2,1.8,1.6,1.6,0,0,1-1.9-1.1A1.6,1.6,0,0,1,17.3,168.7ZM208.2,92.8l.4.6h-.1Zm74.4,42.1a1.6,1.6,0,0,1-3.1.4,1.5,1.5,0,0,1,1.3-1.8A1.6,1.6,0,0,1,282.6,134.9Zm-2.8-9.9a1.6,1.6,0,0,1,.4,3.1,1.6,1.6,0,0,1-1.8-1.4A1.6,1.6,0,0,1,279.8,125Zm-2.1-28.9a1.6,1.6,0,0,1,1,3,1.6,1.6,0,0,1-1-3Zm-3.9,5.5a1.6,1.6,0,0,1,2,1,1.7,1.7,0,0,1-1,2,1.6,1.6,0,0,1-1-3ZM271,93.5a1.5,1.5,0,1,1,1,2.9,1.6,1.6,0,0,1-2-.9A1.6,1.6,0,0,1,271,93.5ZM260.1,67.1h.2c.1-.2.1-.2.3-.3a1.4,1.4,0,0,1,2.1.2,1.5,1.5,0,0,1-.2,2.2l-.3.2c0,.1-.2.2-.3.3a1.6,1.6,0,0,1-2.2-.4A1.5,1.5,0,0,1,260.1,67.1Zm-2.2,6.3a1.1,1.1,0,0,1,.8-.3h0a1.6,1.6,0,0,1,1.9,2.5,1.2,1.2,0,0,1-.9.3h0a1.6,1.6,0,1,1-1.8-2.6Zm-5-7a2,2,0,0,1,1.1-.3,1.4,1.4,0,0,1,1.5.5,1.5,1.5,0,0,1-.2,2.2,1.5,1.5,0,0,1-1.1.4,1.8,1.8,0,0,1-1.7-.6A1.7,1.7,0,0,1,252.9,66.4ZM237.4,42a1.5,1.5,0,0,1,2.2-.1,1.6,1.6,0,1,1-2.2.1Zm-.8,6.6a1.6,1.6,0,0,1,2.2,0,1.7,1.7,0,0,1,.1,2.2,1.7,1.7,0,0,1-2.3,0A1.6,1.6,0,0,1,236.6,48.6Zm-6.3-5.8a1.6,1.6,0,0,1,2.2-.1,1.6,1.6,0,1,1-2.2,2.3A1.6,1.6,0,0,1,230.3,42.8ZM212.7,31.9a1.6,1.6,0,0,1-2.1.8,1.4,1.4,0,0,1-.8-2,1.5,1.5,0,0,1,2-.8A1.6,1.6,0,0,1,212.7,31.9Zm-4.3-7.8a1.5,1.5,0,0,1,2-.8,1.5,1.5,0,0,1,.8,2,1.5,1.5,0,1,1-2.8-1.2Zm-6.5,3.2a1.5,1.5,0,0,1,2-.8,1.5,1.5,0,1,1-1.2,2.8A1.5,1.5,0,0,1,201.9,27.3Zm-22.1-8.5a1.6,1.6,0,0,1,1.2,1.8,1.5,1.5,0,0,1-1.9,1.2,1.5,1.5,0,1,1,.7-3Zm-4.5-5a1.5,1.5,0,0,1,1.8-1.2,1.5,1.5,0,0,1,1.2,1.9,1.6,1.6,0,0,1-1.8,1.2A1.5,1.5,0,0,1,175.3,13.8Zm-5.8,4.4a1.6,1.6,0,0,1,1.9-1.2,1.6,1.6,0,0,1,1.2,1.8,1.7,1.7,0,0,1-1.9,1.3A1.8,1.8,0,0,1,169.5,18.2ZM147,14.7a1.6,1.6,0,0,1,0,3.2,1.6,1.6,0,0,1,0-3.2Zm-3.9-5.4a1.6,1.6,0,0,1,1.6,1.5,1.6,1.6,0,0,1-1.6,1.6,1.6,1.6,0,0,1-1.5-1.6A1.5,1.5,0,0,1,143.1,9.3Zm-4.7,5.4a1.6,1.6,0,0,1,0,3.2,1.6,1.6,0,0,1,0-3.2Zm-23.8,4.6a1.6,1.6,0,1,1-1,2A1.6,1.6,0,0,1,114.6,19.3Zm-5.5-3.8a1.6,1.6,0,0,1,2,.9,1.7,1.7,0,0,1-1,2,1.6,1.6,0,0,1-2-.9A1.6,1.6,0,0,1,109.1,15.5Zm-2.6,6.7a1.6,1.6,0,0,1,2,.9,1.5,1.5,0,0,1-1,2,1.6,1.6,0,0,1-2-.9A1.6,1.6,0,0,1,106.5,22.2ZM85.2,31.4a1.6,1.6,0,0,1,2.1.6,1.6,1.6,0,0,1-.6,2.2,1.6,1.6,0,0,1-2.1-.6A1.6,1.6,0,0,1,85.2,31.4Zm-6.1-2.8a1.5,1.5,0,1,1-.6,2.1A1.5,1.5,0,0,1,79.1,28.6Zm-1.4,7a1.6,1.6,0,1,1-.6,2.2A1.6,1.6,0,0,1,77.7,35.6ZM57.9,50A1.6,1.6,0,0,1,60,52.4a1.5,1.5,0,0,1-2.2-.2A1.6,1.6,0,0,1,57.9,50Zm-6.5-1.5a1.5,1.5,0,0,1,2.2.2,1.6,1.6,0,0,1-2.4,2A1.5,1.5,0,0,1,51.4,48.5Zm2.1,9.6a1.6,1.6,0,0,1-2.1-2.4,1.7,1.7,0,0,1,2.3.2A1.6,1.6,0,0,1,53.5,58.1ZM36.6,74.9a1.6,1.6,0,0,1,2.1-.6,1.6,1.6,0,0,1,.6,2.1,1.4,1.4,0,0,1-2.1.6A1.4,1.4,0,0,1,36.6,74.9Zm-2.1,6.9a1.6,1.6,0,0,1,.6,2.1,1.4,1.4,0,0,1-2.1.6,1.4,1.4,0,0,1-.6-2.1A1.6,1.6,0,0,1,34.5,81.8Zm-4.6-6.1a1.4,1.4,0,0,1,2.1-.6,1.5,1.5,0,0,1,.6,2.1,1.6,1.6,0,0,1-2.1.6A1.5,1.5,0,0,1,29.9,75.7Zm-7.6,30a1.4,1.4,0,0,1,1.9-1,1.5,1.5,0,1,1-.9,2.9A1.4,1.4,0,0,1,22.3,105.7Zm-2.7,8.1a1.7,1.7,0,0,1,2-1,1.6,1.6,0,0,1-1,3A1.7,1.7,0,0,1,19.6,113.8Zm-2.7-4.1a1.5,1.5,0,0,1-1-2,1.5,1.5,0,0,1,1.9-1,1.6,1.6,0,0,1,1,2A1.5,1.5,0,0,1,16.9,109.7Zm-2,28.1a1.5,1.5,0,0,1,1.7-1.3,1.5,1.5,0,0,1,1.4,1.7,1.7,1.7,0,0,1-1.7,1.4A1.6,1.6,0,0,1,14.9,137.8Zm-.9,8.6a1.6,1.6,0,1,1,3.1.3,1.6,1.6,0,0,1-3.1-.3Zm-1.8-4.9a1.7,1.7,0,0,1-1.8,1.4A1.7,1.7,0,0,1,9,141.2a1.6,1.6,0,0,1,1.8-1.4A1.6,1.6,0,0,1,12.2,141.5Zm.7,32.3a1.6,1.6,0,0,1,1.9,1.1,1.5,1.5,0,0,1-1.2,1.9,1.5,1.5,0,1,1-.7-3Zm4.3,19.4a1.5,1.5,0,0,1-1.9-1,1.5,1.5,0,1,1,2.9-1A1.6,1.6,0,0,1,17.2,193.2Zm2.2-6.2v-.2a1.6,1.6,0,0,1,1-2,1.7,1.7,0,0,1,2,1,1.6,1.6,0,0,1-1.1,2h-.8A1.6,1.6,0,0,1,19.4,187Zm4.5,9a1.7,1.7,0,0,1-2-1,1.6,1.6,0,0,1,3-1A1.7,1.7,0,0,1,23.9,196Zm7.5,27.9a1.5,1.5,0,1,1,.6-2.1A1.5,1.5,0,0,1,31.4,223.9Zm2.8-6.1a1.5,1.5,0,1,1,.6-2.1A1.5,1.5,0,0,1,34.2,217.8Zm4.3,7.5a1.6,1.6,0,0,1-2.1-.6,1.6,1.6,0,0,1,.5-2.2,1.6,1.6,0,0,1,1.6,2.8Zm15.3,24.3a1.5,1.5,0,1,1-2.3-2,1.5,1.5,0,0,1,2.2-.2A1.6,1.6,0,0,1,53.8,249.6Zm.6-6.7a1.5,1.5,0,1,1-2.3-2,1.5,1.5,0,0,1,2.2-.2A1.6,1.6,0,0,1,54.4,242.9Zm6.5,5.6a1.5,1.5,0,1,1-2.3-2,1.5,1.5,0,0,1,2.2-.2A1.6,1.6,0,0,1,60.9,248.5Zm18.6,12.9a1.5,1.5,0,0,1,2.1-.5,1.5,1.5,0,0,1,.6,2.1,1.6,1.6,0,0,1-2.1.6A1.6,1.6,0,0,1,79.5,261.4Zm3.3,8.3a1.6,1.6,0,0,1-2.1.6,1.7,1.7,0,0,1-.6-2.2,1.6,1.6,0,0,1,2.2-.5A1.5,1.5,0,0,1,82.8,269.7Zm6.8-2.4a1.6,1.6,0,0,1-2.1.6,1.7,1.7,0,0,1-.6-2.2,1.6,1.6,0,0,1,2.2-.5A1.5,1.5,0,0,1,89.6,267.3ZM110,277.5a1.4,1.4,0,0,1-1-1.9,1.5,1.5,0,1,1,2.9.9A1.4,1.4,0,0,1,110,277.5Zm4,5.5a1.7,1.7,0,0,1-2,1,1.6,1.6,0,0,1-1-2,1.6,1.6,0,0,1,2-1A1.6,1.6,0,0,1,114,283Zm6.1-3.8a1.6,1.6,0,0,1-2,1,1.7,1.7,0,0,1-1-2,1.7,1.7,0,0,1,2-1A1.6,1.6,0,0,1,120.1,279.2Zm22.1,4a1.6,1.6,0,0,1-1.6-1.5,1.6,1.6,0,0,1,1.6-1.6,1.7,1.7,0,0,1,1.6,1.5A1.6,1.6,0,0,1,142.2,283.2Zm4.1,5.4a1.6,1.6,0,0,1-.1-3.1,1.4,1.4,0,0,1,1.6,1.5A1.6,1.6,0,0,1,146.3,288.6Zm4.5-5.6a1.7,1.7,0,0,1-1.6-1.5,1.6,1.6,0,0,1,1.6-1.6,1.6,1.6,0,0,1,1.6,1.5A1.6,1.6,0,0,1,150.8,283Zm25.2-3.2a1.5,1.5,0,0,1-1.9-1.1,1.6,1.6,0,0,1,1.2-1.9,1.6,1.6,0,0,1,1.9,1.2A1.6,1.6,0,0,1,176,279.8Zm5,4.5a1.5,1.5,0,1,1-.7-3,1.5,1.5,0,0,1,1.9,1.1A1.6,1.6,0,0,1,181,284.3Zm3.4-6.4a1.5,1.5,0,1,1-.7-3,1.4,1.4,0,0,1,1.8,1.2A1.5,1.5,0,0,1,184.4,277.9Zm23-8.1a1.5,1.5,0,0,1-2-.8,1.5,1.5,0,0,1,.7-2.1,1.7,1.7,0,0,1,2.1.8A1.6,1.6,0,0,1,207.4,269.8Zm5.9,3.3a1.6,1.6,0,1,1-1.3-2.9,1.6,1.6,0,0,1,1.3,2.9Zm1.9-6.9a1.6,1.6,0,0,1-1.3-2.9,1.7,1.7,0,0,1,2.1.8A1.6,1.6,0,0,1,215.2,266.2ZM235,252a1.6,1.6,0,0,1-2.2,0,1.7,1.7,0,0,1,0-2.3A1.6,1.6,0,0,1,235,252Zm3.9-8.3a1.7,1.7,0,0,1,2.3.1,1.6,1.6,0,0,1-2.3,2.2A1.7,1.7,0,0,1,238.9,243.7Zm2.7,9.5a1.5,1.5,0,0,1-2.2-.1,1.5,1.5,0,1,1,2.2.1Zm15-24.5a1.6,1.6,0,0,1-2.2.3,1.6,1.6,0,0,1-.4-2.2,1.6,1.6,0,0,1,2.2-.3A1.6,1.6,0,0,1,256.6,228.7Zm2.8-6.6a1.6,1.6,0,0,1-.3-2.2,1.6,1.6,0,0,1,2.2-.4,1.6,1.6,0,0,1,.3,2.2A1.6,1.6,0,0,1,259.4,222.1Zm3.9,6.6a1.6,1.6,0,0,1-2.2.4,1.6,1.6,0,0,1-.3-2.2,1.5,1.5,0,0,1,2.1-.4A1.6,1.6,0,0,1,263.3,228.7Zm10.2-28.4a1.5,1.5,0,1,1-.8-2A1.5,1.5,0,0,1,273.5,200.3Zm3.5-7.8a1.5,1.5,0,0,1-2,.8,1.6,1.6,0,0,1-.8-2.1,1.5,1.5,0,0,1,2-.8A1.6,1.6,0,0,1,277,192.5Zm3.1,6.5a1.5,1.5,0,0,1-2,.8,1.6,1.6,0,0,1-.8-2.1,1.5,1.5,0,0,1,2-.8A1.6,1.6,0,0,1,280.1,199Zm.7-28.8a1.6,1.6,0,0,1-1.5-1.6,1.6,1.6,0,1,1,3.2.2A1.5,1.5,0,0,1,280.8,170.2Zm.7-8.5A1.6,1.6,0,0,1,280,160a1.5,1.5,0,0,1,1.7-1.4,1.4,1.4,0,0,1,1.4,1.6A1.6,1.6,0,0,1,281.5,161.7Zm5,5.1a1.6,1.6,0,0,1-1.4-1.7,1.5,1.5,0,0,1,1.7-1.4,1.5,1.5,0,0,1,1.4,1.6A1.6,1.6,0,0,1,286.5,166.8Z"/><path class="cls-1" d="M226.5,259.4l-.8.4-.8.7,1.6-1h0Z"/><path class="cls-1" d="M130.1,282.7H129a6.3,6.3,0,0,1,1.9.3h.1Z"/><path class="cls-1" d="M267,63.5c-5.4-6.9-6.3-7.2-8.8-5.2a7.7,7.7,0,0,1-4.6,1.6,8.2,8.2,0,0,0,4.7-1.3c2.6-1.8,3.4-1.5,8.4,5.6,3.4,4.8,3.9,6.8,3.4,7.9C271.3,71.1,271.9,69.7,267,63.5Zm1.9,9.9c-1.2.8-3.5,6.3-2.9,9.6l1.4-.5c-.8-2.7.5-7.3,1.7-9.3Zm-8.6-4.5a1.5,1.5,0,0,1,0-1.9h-.2a1.5,1.5,0,0,0-.4,2.1,1.6,1.6,0,0,0,2.2.4c.1-.1.3-.2.3-.3A1.6,1.6,0,0,1,260.3,68.9Zm-1.6,4.2a1.1,1.1,0,0,0-.8.3,1.6,1.6,0,1,0,1.8,2.6h0a1.9,1.9,0,0,1-1.3-.6A1.6,1.6,0,0,1,258.7,73.1Zm-5.6-4.5a1.6,1.6,0,0,1,.3-2.2.6.6,0,0,1,.6-.3,2,2,0,0,0-1.1.3,1.7,1.7,0,0,0-.4,2.2,1.8,1.8,0,0,0,1.7.6A2.4,2.4,0,0,1,253.1,68.6Z"/><path class="cls-1" d="M281,179.9l-.3.9c-.1.4-.1.7-.2,1.1a12.1,12.1,0,0,1,.5-1.8h0Z"/><path class="cls-1" d="M43.6,234.5l-.8-.7a9.8,9.8,0,0,1,1.2,1.5h.1A3.5,3.5,0,0,0,43.6,234.5Z"/><path class="cls-1" d="M21.2,178.2a1.6,1.6,0,0,0-1.9-1.1,1.5,1.5,0,0,0-1.1,1.9,1.5,1.5,0,0,0,1.8,1.1A1.5,1.5,0,0,0,21.2,178.2Z"/><polygon class="cls-1" points="208.6 93.4 208.5 93.3 208.2 92.8 208.6 93.4"/></svg>