<?xml version="1.0" encoding="utf-8"?>
<!-- Generator: Adobe Illustrator 22.1.0, SVG Export Plug-In . SVG Version: 6.00 Build 0)  -->
<svg version="1.1" id="Ebene_1" xmlns="http://www.w3.org/2000/svg" xmlns:xlink="http://www.w3.org/1999/xlink" x="0px" y="0px"
	 viewBox="0 0 220.9 125.3" style="enable-background:new 0 0 220.9 125.3;" xml:space="preserve">
<style type="text/css">
	.st0{fill:#FFFFFF;}
	.st1{fill:#1D1D1B;stroke:#000000;stroke-miterlimit:10;}
</style>
<g id="korn">
	<title>Zeichenfläche 1</title>
	<path class="st0" d="M204.2,14.4C195.3,60.2,135,103,96.4,114c-14.1,4.1-65.4,6.3-83.3-5.4c-9.3-6.1,19.2-48.1,26.7-57.1
		C61.7,25.2,93.9,9.2,128.2,6.3C128.4,6.3,204.6,3.8,204.2,14.4z"/>
</g>
<g id="Ebene_2_1_">
	<path class="st1" d="M60,63.8C58.6,65.7,70.3,74,81.1,90.2c6.3,9.5,7.2,13.9,10,13.8c4.7-0.2,5.4-13,14.4-34.4
		c2.8-6.6,7-16.5,14.4-27.6c10.5-15.8,22.3-26.1,21.1-27.6c-0.5-0.5-1.8-0.9-3.1-0.2C120.5,24,107.4,54.6,105,60.3
		c-6.5,15.6-9.7,23.4-10.3,29.1c-0.2,2-2,7.7-3.8,8c-1,0.1-4.8-4.8-5.2-5.5c-3.5-6-6-9.4-9.9-15.2c-3.1-4.6-7.3-10.8-12.1-12.6
		C62.5,63.8,60.5,63.1,60,63.8z"/>
</g>
</svg>
