<svg id="kuchen" xmlns="http://www.w3.org/2000/svg" viewBox="0 0 114.1 223.9"><title>Zeichenfläche 1</title><path d="M110.1,100.8a10.6,10.6,0,0,0-7.6-9.9c5.7-5.8,6.3-15.1,2.9-22.4-1.4-3-4-6.9-7-8.5-1.4-.7-2.7-1-3.9-2.2s-2.2-2.6-3.8-3.6A12.9,12.9,0,0,0,86,52.7c-.7-.1-5,.3-5.5-.2s0-5.1-.3-6.2a12.2,12.2,0,0,0-2.6-5.5c-5.2-6.5-16.5-6.5-22.4-1.6-2.5-6.6-5.5-11.9-11.7-15.7-3.2-1.9-6.6-4-10.1-5.1s-8.3-.5-10.6-2.5-2.7-5.9-1.5-8,2.5-1.3,2.5-2.7-1.1-1.8-2.1-1.8-4.2,3.8-4.3,5.8.8,5.9,2.4,8.6A24.6,24.6,0,0,0,8.3,26.1c-1.1,1.3-3.9,3.6-3,5.6s4.3,2.8,5.8,3.3c4,1,9.5,1.1,12.9-1.4s5.4-8.2,6-12.7a47.3,47.3,0,0,1,14.8,7.6c2.2,1.9,7.6,8,6.8,11.3-8.6-2-16,4.9-15.7,13.5-5.3-.3-11.4-1.6-15.8,2a11.4,11.4,0,0,0-3.9,5.9c-.6,2,.3,6-.9,7.6s-4,1.6-5.5,2.8-2.4,3.9-2.7,6.3c-.8,6.3,1.1,12.2,2.1,18.4.4,2.8.6,4.9-1.1,7.2s-2.3,3.9-2.6,7-1.2,4.9-1.4,7.5a41.6,41.6,0,0,0,1,10.5c2.4,13.2,5.8,26.1,7.9,39.4,1,6.5,2.9,12.9,4.4,19.4s1.2,13.2,5,17.7,10.1,6.8,15.6,9.3,11.3,5.3,17.6,6.2c4.5.7,9.1,1.8,13.7,1.8s7.4-1.1,11.6-3.1a44.8,44.8,0,0,0,7-4.2c1.9-1.4,5.4-3.5,6.3-5.6s.1-2.7.3-3.8.7-3.1,1-4.6c.8-3.5,1.5-6.9,2.2-10.4,1.4-7.3,2.3-14.6,4.1-21.8s1.9-14.2,3-21.2C107.4,132.1,110.9,116.6,110.1,100.8Zm-85-74.3c-2.1,3.5-3.7,5.5-8,5.7-1.9.1-4.9,0-6.6-1s-.7-2.1,1-4,5.1-5.2,8.8-5.9a9.1,9.1,0,0,1,4.9.1c1.6.8,1,.2,1,2.1A6.8,6.8,0,0,1,25.1,26.5ZM86.7,56.4c3.2.6,3.7,2.5,5.6,4.7s4.3,1.4,6.2,3.3a20.4,20.4,0,0,1,5.1,18.4c-.5,1.9-2.9,6.7-5.4,6.7s-3.4-2.3-4.3-2.8a6.6,6.6,0,0,0-3.7-1c-2.9.2-3.9,2.6-6.5,3.6s-8.2.2-11.8-.4c-5.7-1-15.3-4.7-20.8-1.7-2,1.1-2.5,3.9-4.9,3.3s-2.9-1.9-4.5-2.4a28.8,28.8,0,0,0-5.9-.5,40.1,40.1,0,0,0-6,.2c-2.2.3-2.5,1.2-3.3-1.3s-1.6-6.9.3-10.2c3.2-5.8,10.5-8.5,16.8-9.4A107,107,0,0,1,57.5,66c3.6,0,8,.8,11.3-1s4.8-5.6,7.8-7.7S83.3,55.7,86.7,56.4Zm-46.5-8a9,9,0,0,1,9-5.5c2,.2,4.2,2.6,6,2.3s2.1-2.9,3.3-4.3c2.8-3.2,9.8-1.8,13.2-.3s5.5,5.5,5.4,9.5-.8,3.2-2.9,4.9-3,3.2-4.5,4.8c-3.3,3.6-6.9,2.8-11.4,2.8s-10.1,1.5-14.2-1S38.4,53.2,40.2,48.4ZM26.3,56.3c2.6-.2,7.5-.7,9.8,1s2.1,4.7,4.4,6.4c-1.3.4-4.2,2.1-5.6,1.9s-3.4-2.6-4.5-3.2a15.4,15.4,0,0,0-10-2.2A6.8,6.8,0,0,1,26.3,56.3ZM19,65.9c.1-6.2,10.8.2,13,1.3-1.8,1-4.3,3.3-6.2,3.5s-2.9-1-3.9-1.3C19.2,68.5,19,68.8,19,65.9ZM11.3,75c1.1-2.1,5.2-2.7,7.3-2.7a9.7,9.7,0,0,1,3.4.6c2.3.8,1.8.8,1.2,2.8s-.9,2.9-1.4,3.2-3.4,0-4,.2a19.4,19.4,0,0,0-7.6,3.4C10.3,79.8,10.2,77.3,11.3,75ZM24,89.9,13,98.7c-.8-4.2-3.9-10.9,0-13.9,1.7-1.4,5.2-3.2,7.5-2.6s1.5.6,2,2.5ZM10.1,106.2c4.8-4.8,10.3-10.2,16.4-13.4,3.2-1.7,6.1-1.9,9.7-1.7a14.6,14.6,0,0,1,5.1.6c1.5.5,2.7,1.9,4.3,2.4,3.3.9,4.1-1.2,6.1-3s6.2-.9,9.3-.5c6.9.9,14.3,3.2,21.4,2.4,3.1-.4,4-1.8,6.5-3.3s5.7,1.8,7.9,3.4,4.7.8,6.9,2.1,3.1,4.4,3.2,7-.8,6.3-3,8-4.4-.5-7.1.1-1.4,3.2-3.2,4.4-4.7-.1-6.8-1.2-4.6,2.9-6.9,4.6a6.4,6.4,0,0,1-4.6,1.3c-2.1-.2-2-1-3.6-2.1-3.2-2.1-5.7,1.7-8.8,2.6s-6.6.2-9.2-3.3c1.9-.2,6.9-3.7,5-6s-3.6,3.2-6.1,2.1-1.5-3.2-3.2-3.3-2,1.3-1.9,2.4c.5,2.9,6.1,4,1.8,6.8-2.8,1.8-5.9-.2-8.4-1.5a28.2,28.2,0,0,1-4.8-2.7c-.8-.9-1.4-3-2.6-3.4s-4.8,3.4-7.5,3.3-3.3-4.5-3.6-7.2c1.2,0,3,.1,3.1-1.6s-2-1.6-3.3-1.8-1.1.1-1.7-.4-.1-1-.7-1.3-2.9-.7-3,1.6,4,4.6-.9,6.4c-1.6.6-4.7,1.4-6.2.6S8.9,107.4,10.1,106.2Zm95.8,14.2c-1.4,8.9-2.9,17.9-4.4,26.8-.7,4.2-1.2,8.5-1.7,12.7s-1.7,8.7-2.5,13.1c-1.5,8.8-3,17.7-4.9,26.5-.8,3.4-.8,7.9-3.5,10.5s-7.1,4.9-10.5,6.6c-7.7,3.9-16.3,1.7-24.4.2s-15.5-5.7-22.6-9.2c-3-1.5-6.3-3.6-7.6-6.8s-2-8.7-2.9-12.7c-1.9-8.9-3.6-17.7-5.4-26.6S11,142.1,9.2,132.3c-.8-4.9-2.5-10.5-1.6-15.6s5.6-2.6,8.8-3.1c.3,2.5.2,16.8,3.6,16.2s0-13.8-.2-16.3c2.1,3.9,6.2,5.7,10.3,3.1.5,3.4,1.2,6.7,1.6,10.1s-.6,8.3,2.2,8.5,0-16-.3-18.2c5.9,3.2,10.5,6.6,17.4,5,0,2.7-1.2,21.2,1.8,21.2s1.5-17.5,1.5-20.5c5.1,2.4,9.6.7,14.2-1.5-.5,5.8-.9,11.5-1.5,17.3-.2,2.3-2.9,14.8.4,15.1s2.6-12.5,2.9-14.5c.8-5.6,1.1-11.2,1.5-16.8,4.2.9,8.4.5,11.6-2.7-.3,3.2-3.5,22.4-.7,23s2.6-7,2.7-8.8c.5-5.1,1.1-10.2,1.6-15.3,2.8.3,5.7.5,8.3-.6-.2,3.4-1.2,7.5-1,10.8s2.9,2.7,3.6-.3.7-7.3.9-10.7,0-2.6,3.1-3.1,3.4-1.3,5.1-2.4C106.6,115,106.3,117.7,105.9,120.4Z"/></svg>