<?xml version="1.0" encoding="utf-8"?>
<!-- Generator: Adobe Illustrator 22.1.0, SVG Export Plug-In . SVG Version: 6.00 Build 0)  -->
<svg version="1.1" xmlns="http://www.w3.org/2000/svg" xmlns:xlink="http://www.w3.org/1999/xlink" x="0px" y="0px"
	 viewBox="0 0 113.8 72.2" style="enable-background:new 0 0 113.8 72.2;" xml:space="preserve">
<style type="text/css">
	.st0{fill:#FFFFFF;}
	.st1{clip-path:url(#SVGID_2_);}
	.st2{clip-path:url(#SVGID_4_);}
	.st3{clip-path:url(#SVGID_6_);}
	.st4{clip-path:url(#SVGID_8_);}
	.st5{clip-path:url(#SVGID_10_);}
	.st6{clip-path:url(#SVGID_12_);}
	.st7{clip-path:url(#SVGID_14_);}
	.st8{clip-path:url(#SVGID_16_);}
	.st9{clip-path:url(#SVGID_18_);}
	.st10{clip-path:url(#SVGID_20_);}
	.st11{clip-path:url(#SVGID_22_);}
	.st12{clip-path:url(#SVGID_24_);}
	.st13{clip-path:url(#SVGID_26_);}
</style>
<g id="Ebene_2">
	<path class="st0" d="M87.7,72.2H26.1C11.7,72.2,0,60.5,0,46.1v-7.5c0-14.4,11.7-26.1,26.1-26.1h61.6c14.4,0,26.1,11.7,26.1,26.1
		v7.5C113.8,60.5,102.1,72.2,87.7,72.2z"/>
</g>
<g id="Ebene_1">
	<g id="Ebene_1_3_">
		<g id="Ebene_1_2_">
			<g id="Ebene_1_1_">
				<g>
					<g>
						<g>
							<g>
								<g>
									<g>
										<g>
											<defs>
												<rect id="SVGID_1_" x="11" y="-0.1" width="85" height="62.4"/>
											</defs>
											<clipPath id="SVGID_2_">
												<use xlink:href="#SVGID_1_"  style="overflow:visible;"/>
											</clipPath>
											<path class="st1" d="M39.9,42.2c-0.5-4.9,1.4-7.8,6.8-9.9c0.1,2.3,0.3,4.6-1.5,6.4C43.7,40.2,41.8,41.2,39.9,42.2"/>
										</g>
									</g>
								</g>
							</g>
						</g>
					</g>
					<g>
						<g>
							<g>
								<g>
									<g>
										<g>
											<defs>
												<rect id="SVGID_3_" x="11" y="-0.1" width="85" height="62.4"/>
											</defs>
											<clipPath id="SVGID_4_">
												<use xlink:href="#SVGID_3_"  style="overflow:visible;"/>
											</clipPath>
											<path class="st2" d="M38.6,42.2c0.5-4.9-1.4-7.8-6.8-9.9c-0.1,2.3-0.3,4.6,1.5,6.4C34.8,40.2,36.7,41.2,38.6,42.2"/>
										</g>
									</g>
								</g>
							</g>
						</g>
					</g>
					<g>
						<g>
							<g>
								<g>
									<g>
										<g>
											<defs>
												<rect id="SVGID_5_" x="11" y="-0.1" width="85" height="62.4"/>
											</defs>
											<clipPath id="SVGID_6_">
												<use xlink:href="#SVGID_5_"  style="overflow:visible;"/>
											</clipPath>
											<path class="st3" d="M39.9,34.4c-0.5-4.9,1.4-7.8,6.8-9.9c0.1,2.3,0.3,4.6-1.5,6.4C43.7,32.5,41.8,33.4,39.9,34.4"/>
										</g>
									</g>
								</g>
							</g>
						</g>
					</g>
					<g>
						<g>
							<g>
								<g>
									<g>
										<g>
											<defs>
												<rect id="SVGID_7_" x="11" y="-0.1" width="85" height="62.4"/>
											</defs>
											<clipPath id="SVGID_8_">
												<use xlink:href="#SVGID_7_"  style="overflow:visible;"/>
											</clipPath>
											<path class="st4" d="M38.6,34.4c0.5-4.9-1.4-7.8-6.8-9.9c-0.1,2.3-0.3,4.6,1.5,6.4C34.8,32.5,36.7,33.4,38.6,34.4"/>
										</g>
									</g>
								</g>
							</g>
						</g>
					</g>
					<g>
						<g>
							<g>
								<g>
									<g>
										<g>
											<defs>
												<rect id="SVGID_9_" x="11" y="-0.1" width="85" height="62.4"/>
											</defs>
											<clipPath id="SVGID_10_">
												<use xlink:href="#SVGID_9_"  style="overflow:visible;"/>
											</clipPath>
											<path class="st5" d="M37.1,12.3c-1.5-1.5-3.2-2.4-5.1-3.4L30.7,4l-0.8,0.2l1.9,7.8c0.6,3,2.7,5,6.8,6.6
												C38.8,16.3,38.9,14.1,37.1,12.3"/>
										</g>
									</g>
								</g>
							</g>
						</g>
					</g>
					<g>
						<g>
							<g>
								<g>
									<g>
										<g>
											<defs>
												<rect id="SVGID_11_" x="11" y="-0.1" width="85" height="62.4"/>
											</defs>
											<clipPath id="SVGID_12_">
												<use xlink:href="#SVGID_11_"  style="overflow:visible;"/>
											</clipPath>
											<path class="st6" d="M41.5,12.3c1.5-1.5,3.2-2.4,5.1-3.4L47.9,4l0.8,0.2L46.8,12c-0.6,3-2.7,5-6.8,6.6
												C39.8,16.3,39.7,14.1,41.5,12.3"/>
										</g>
									</g>
								</g>
							</g>
						</g>
					</g>
					<g>
						<g>
							<g>
								<g>
									<g>
										<g>
											<defs>
												<rect id="SVGID_13_" x="11" y="-0.1" width="85" height="62.4"/>
											</defs>
											<clipPath id="SVGID_14_">
												<use xlink:href="#SVGID_13_"  style="overflow:visible;"/>
											</clipPath>
											<path class="st7" d="M37.1,20c-1.5-1.5-3.1-2.4-5.1-3.4l-1.3-4.9l-0.8,0.2l1.9,7.8c0.6,3,2.7,5,6.8,6.6
												C38.8,24.1,38.9,21.8,37.1,20"/>
										</g>
									</g>
								</g>
							</g>
						</g>
					</g>
					<g>
						<g>
							<g>
								<g>
									<g>
										<g>
											<defs>
												<rect id="SVGID_15_" x="11" y="-0.1" width="85" height="62.4"/>
											</defs>
											<clipPath id="SVGID_16_">
												<use xlink:href="#SVGID_15_"  style="overflow:visible;"/>
											</clipPath>
											<path class="st8" d="M41.5,20c1.5-1.5,3.1-2.4,5.1-3.4l1.3-4.9l0.8,0.2l-1.9,7.8c-0.6,3-2.7,5-6.8,6.6
												C39.8,24.1,39.7,21.8,41.5,20"/>
										</g>
									</g>
								</g>
							</g>
						</g>
					</g>
					<g>
						<g>
							<g>
								<g>
									<g>
										<g>
											<defs>
												<rect id="SVGID_17_" x="11" y="-0.1" width="85" height="62.4"/>
											</defs>
											<clipPath id="SVGID_18_">
												<use xlink:href="#SVGID_17_"  style="overflow:visible;"/>
											</clipPath>
											<path class="st9" d="M39.3,12.9c0,0-2.3-3.1-2.5-5.1c-0.4-4.2,2.4-5.7,2.4-5.7s2.8,1.5,2.5,5.7
												C41.6,9.8,39.3,12.9,39.3,12.9L39.3,12.9z"/>
										</g>
									</g>
								</g>
							</g>
						</g>
					</g>
					<g>
						<g>
							<g>
								<g>
									<g>
										<g>
											<defs>
												<rect id="SVGID_19_" x="11" y="-0.1" width="85" height="62.4"/>
											</defs>
											<clipPath id="SVGID_20_">
												<use xlink:href="#SVGID_19_"  style="overflow:visible;"/>
											</clipPath>
											<path class="st10" d="M46.2,44.2c0,9.4-7.6,17-17,17s-17-7.6-17-17s7.6-17,17-17v14.2c-1.6,0-2.8,1.3-2.8,2.8
												c0,1.6,1.3,2.8,2.8,2.8c1.6,0,2.8-1.3,2.8-2.8H46.2z"/>
										</g>
									</g>
								</g>
							</g>
						</g>
					</g>
					<g>
						<g>
							<g>
								<g>
									<g>
										<g>
											<defs>
												<rect id="SVGID_21_" x="11" y="-0.1" width="85" height="62.4"/>
											</defs>
											<clipPath id="SVGID_22_">
												<use xlink:href="#SVGID_21_"  style="overflow:visible;"/>
											</clipPath>
											<path class="st11" d="M89.5,53.4v1.4h1.1v3.8c0,0.4,0.1,0.6,0.1,0.9c0.4,1.1,1.7,1.2,2.1,1.2c1.4,0,1.9-0.7,2.1-1.3
												c0.1-0.5,0.1-0.9,0.1-1.3h-1.2c0,0.1,0.1,0.6-0.3,0.9c-0.1,0.1-0.3,0.1-0.3,0.1c-0.1,0-0.2,0-0.3-0.1
												c-0.2-0.1-0.2-0.3-0.2-0.7v-3.6h1.9v-1.4h-1.9v-2.1l-2,0.7v1.4L89.5,53.4L89.5,53.4z M83.6,56.9c0-0.7,0.1-1.4,0.7-1.9
												c0.1-0.1,0.4-0.3,1-0.3c0.7,0,1.3,0.5,1.5,1.2c0.1,0.3,0.1,0.7,0.1,1.1c0,0.5-0.1,1-0.3,1.5c-0.3,0.5-0.8,0.8-1.3,0.8
												c-0.3,0-0.5-0.1-0.8-0.2C83.6,58.5,83.6,57.1,83.6,56.9 M81.6,57c0,1.5,0.7,2.8,2.2,3.4c0.7,0.3,1.3,0.3,1.5,0.3
												c0.9,0,1.5-0.3,1.8-0.4c1.3-0.6,1.7-1.6,1.8-2.1c0.1-0.4,0.2-0.8,0.2-1.2c0-1.5-0.7-2.8-2.1-3.4c-0.5-0.2-1-0.3-1.6-0.3
												c-0.7,0-2.6,0.2-3.5,2.1C81.6,56,81.6,56.7,81.6,57 M75.1,59.1v1.4h4.2v-1.4h-1.2v-2.2c0.1-0.4,0.1-0.6,0.2-0.9
												c0.1-0.2,0.2-0.3,0.3-0.5c0.6-0.6,1.4-0.6,1.7-0.6s0.5,0,0.7,0v-1.7c-0.4-0.1-0.6-0.1-0.8-0.1c-0.3,0-1.1,0.1-1.8,0.8
												c-0.1,0.2-0.3,0.4-0.5,0.8v-1.4H75v1.4h1V59L75.1,59.1L75.1,59.1L75.1,59.1z M65.6,59.1v1.4h3.9v-1.4h-1v-2.2
												c0-0.5,0.1-1,0.3-1.4c0.3-0.4,0.8-0.8,1.3-0.8c0.3,0,0.6,0.1,0.7,0.2c0.3,0.2,0.5,0.5,0.5,1.2V59h-0.9v1.4h3.8V59h-0.9
												v-3.4c0-0.2,0-0.7-0.2-1.2c-0.4-0.8-1.4-1.2-2.3-1.2c-0.6,0-1.3,0.2-1.8,0.6c-0.2,0.2-0.3,0.3-0.4,0.5v-3.9h-2.9v1.3h0.9
												V59L65.6,59.1L65.6,59.1z M63.3,54.3c-0.2-0.2-0.3-0.5-0.5-0.6c-0.6-0.4-1.4-0.4-1.6-0.4c-1.4,0-2.5,0.8-2.9,2.1
												c-0.2,0.7-0.2,1.3-0.2,1.5c0,0.4,0,1.5,0.8,2.5c0.3,0.4,0.6,0.6,0.7,0.7c0.6,0.4,1.4,0.5,2.2,0.5c2,0,2.8-1.1,3-1.9
												c0.1-0.3,0.1-0.4,0.1-0.7h-1.7c0,0.2-0.1,0.3-0.2,0.5c-0.3,0.6-0.9,0.6-1.2,0.6c-0.2,0-0.6,0-1-0.4
												c-0.2-0.2-0.3-0.4-0.4-0.5c-0.3-0.5-0.3-1.3-0.3-1.4c0-1,0.4-2.2,1.6-2.2c0.5,0,0.8,0.2,1,0.4c0.3,0.3,0.4,0.7,0.4,1.2
												h1.7v-2.8h-1.6v0.9C63.2,54.3,63.3,54.3,63.3,54.3z M55.2,54.1c-0.4-0.4-0.5-0.5-0.8-0.6c-0.5-0.2-1-0.2-1.2-0.2
												c-0.8,0-1.7,0.3-2.2,1c-0.1,0.2-0.3,0.6-0.3,1.1c0,1.1,0.6,1.6,1,1.8c0.3,0.2,0.7,0.3,0.8,0.3l1.3,0.3
												c0.5,0.1,0.9,0.3,1,0.5c0.1,0.1,0.1,0.3,0.1,0.3c0,0.1,0,0.3-0.1,0.4c-0.1,0.2-0.4,0.3-0.9,0.3c-0.8,0-1.2-0.4-1.4-0.7
												c-0.1-0.2-0.1-0.4-0.1-0.6h-1.6v2.4h1.6v-0.8c0,0,0.3,0.4,0.5,0.5c0.5,0.4,1.3,0.4,1.5,0.4c0.9,0,1.4-0.3,1.8-0.5
												c0.8-0.6,0.8-1.4,0.8-1.7c0-1.1-0.7-1.6-1-1.8s-0.8-0.3-0.9-0.3l-1.5-0.3c-0.3-0.1-0.7-0.2-0.8-0.5
												c0-0.1-0.1-0.1-0.1-0.3s0.1-0.3,0.1-0.3c0.2-0.3,0.6-0.3,0.9-0.3c0.2,0,0.7,0,1,0.3s0.3,0.5,0.3,0.8h1.6v-2.3h-1.5v0.8
												C55.1,54.1,55.2,54.1,55.2,54.1z"/>
										</g>
									</g>
								</g>
							</g>
						</g>
					</g>
					<g>
						<g>
							<g>
								<g>
									<g>
										<g>
											<defs>
												<rect id="SVGID_23_" x="11" y="-0.1" width="85" height="62.4"/>
											</defs>
											<clipPath id="SVGID_24_">
												<use xlink:href="#SVGID_23_"  style="overflow:visible;"/>
											</clipPath>
											<path class="st12" d="M71.5,44.8c0.1-0.8,0.3-1.3,0.6-1.6c0.4-0.4,0.9-0.5,1.1-0.5c0.4,0,0.7,0.1,1,0.4
												c0.4,0.3,0.7,0.8,0.7,1.9c0,0.3,0,1.1-0.6,1.7c-0.4,0.5-0.9,0.5-1.2,0.5c-0.5,0-0.8-0.2-0.9-0.3
												C71.4,46.2,71.5,45,71.5,44.8 M74.9,42.4c-0.1-0.1-0.4-0.4-0.7-0.6c-0.7-0.5-1.3-0.5-1.6-0.5c-1,0-1.6,0.4-1.9,0.6
												c-0.6,0.4-1.2,1.4-1.2,3.1c0,1.3,0.4,2.6,1.6,3.3c0.4,0.2,0.9,0.4,1.4,0.4c0.7,0,1.6-0.3,2.1-0.8
												c0.2-0.2,0.4-0.5,0.4-0.5v1.1h2.8v-1.4h-1v-8.7h-3v1.4h1L74.9,42.4L74.9,42.4z M59.8,47v1.4h4V47h-0.9v-2.5
												c0.1-0.5,0.1-1,0.4-1.3c0.4-0.4,1-0.5,1.2-0.5c0.1,0,0.4,0,0.7,0.2c0.5,0.3,0.5,0.7,0.6,1.2v3h-0.9v1.4h4v-1.4h-1v-3.4
												c0-0.1,0-0.8-0.3-1.2c-0.2-0.3-0.6-0.9-1.5-1.1c-0.4-0.1-0.7-0.1-0.9-0.1c-0.7,0-1.4,0.2-1.9,0.6
												c-0.2,0.2-0.3,0.4-0.5,0.6v-1.1h-3v1.4h1v4.3h-1C59.8,47.1,59.8,47,59.8,47z M50.3,41.4v1.4h0.9v3.3c0,0.4,0,0.7,0.2,1.1
												c0.3,0.9,1.3,1.4,2.2,1.4c0.3,0,1.3-0.1,1.9-0.7c0.1-0.1,0.2-0.3,0.4-0.6v1.1h2.8V47h-0.9v-5.6h-3.1v1.4h1v2.7
												c0,0.3,0,1-0.7,1.4c-0.3,0.2-0.6,0.2-0.7,0.2c-0.3,0-0.5-0.1-0.6-0.2c-0.5-0.2-0.5-0.7-0.6-1.2v-4.3
												C53.1,41.4,50.3,41.4,50.3,41.4z"/>
										</g>
									</g>
								</g>
							</g>
						</g>
					</g>
					<g>
						<g>
							<g>
								<g>
									<g>
										<g>
											<defs>
												<rect id="SVGID_25_" x="11" y="-0.1" width="85" height="62.4"/>
											</defs>
											<clipPath id="SVGID_26_">
												<use xlink:href="#SVGID_25_"  style="overflow:visible;"/>
											</clipPath>
											<path class="st13" d="M74.3,35v1.4h4V35h-0.9v-2.5c0.1-0.5,0.1-1,0.4-1.3c0.4-0.4,1-0.5,1.2-0.5c0.1,0,0.4,0,0.7,0.2
												c0.5,0.3,0.5,0.7,0.6,1.2v3h-0.9v1.4h4v-1.4h-1v-3.4c0-0.1,0-0.8-0.3-1.2c-0.2-0.3-0.6-0.9-1.5-1.1
												c-0.4-0.1-0.7-0.1-0.9-0.1c-0.7,0-1.4,0.2-1.9,0.6c-0.2,0.2-0.3,0.4-0.5,0.6v-1.1h-3v1.4h1v4.3h-1L74.3,35L74.3,35z
												 M67.7,35v1.4h4.2V35h-1.2v-2.1c0.1-0.4,0.1-0.6,0.2-0.9c0.1-0.2,0.2-0.4,0.3-0.5c0.6-0.6,1.4-0.6,1.6-0.6
												c0.3,0,0.5,0,0.7,0v-1.6c-0.4-0.1-0.6-0.1-0.8-0.1c-0.3,0-1.1,0.1-1.8,0.8c-0.1,0.2-0.3,0.4-0.5,0.8v-1.4h-2.9v1.4h1v4.3
												L67.7,35L67.7,35z M61.5,32.9c0-0.7,0.1-1.4,0.7-1.9c0.1-0.1,0.4-0.3,1-0.3c0.7,0,1.3,0.5,1.5,1.2
												c0.1,0.3,0.1,0.7,0.1,1.1c0,0.5-0.1,1-0.3,1.5c-0.3,0.5-0.8,0.8-1.3,0.8c-0.3,0-0.5-0.1-0.8-0.2
												C61.4,34.5,61.5,33.1,61.5,32.9 M59.4,32.9c0,1.5,0.7,2.8,2.2,3.4c0.7,0.3,1.3,0.3,1.5,0.3c0.9,0,1.5-0.2,1.8-0.4
												c1.3-0.6,1.7-1.6,1.8-2.1c0.1-0.4,0.2-0.8,0.2-1.2c0-1.5-0.7-2.8-2.1-3.4c-0.5-0.2-1-0.3-1.6-0.3c-0.7,0-2.6,0.2-3.5,2.1
												C59.4,32,59.4,32.7,59.4,32.9 M50.3,35.1v1.3h3.8v-1.3h-0.9v-1l1.3-1l1.2,2h-0.9v1.3h3.8v-1.3h-0.7l-1.9-3l1.7-1.4h0.7
												v-1.3h-4v1.3h1l-2.1,1.7v-6h-2.9v1.4h0.9v7.4L50.3,35.1L50.3,35.1z"/>
										</g>
									</g>
								</g>
							</g>
						</g>
					</g>
				</g>
			</g>
		</g>
	</g>
</g>
</svg>
