<svg id="Mehlsack" xmlns="http://www.w3.org/2000/svg" viewBox="0 0 137.2 196.9"><title>Zeichenfläche 1</title><path d="M128.3,149.6c.7-3.9,1.6-7.9,2.3-11.9.4-2.2.4-4.5.7-6.7s1.1-5.6,1.4-8.4c.4-5.3.6-10.6.8-15.9a34,34,0,0,0-1-11,8.3,8.3,0,0,1-.3-2.2,18.5,18.5,0,0,0-1.1-7.4,11.4,11.4,0,0,1-.6-2.5c-.4-3.2-.9-6.5-1.2-9.7a16,16,0,0,0-1.9-7.1,60.3,60.3,0,0,1-2.6-5.8l-2.7-7.4a43.2,43.2,0,0,1-1.9-4.5,31.8,31.8,0,0,1-1-5.2c-.1-1.8.2-3.6-.3-5.3-1-3.9-2-7.8-1.8-11.8a12.6,12.6,0,0,0-.5-2.8c-.2-1-.5-2-.7-3s0-1.8-.1-2.6-2.3-3.1-4.3-3.7l-6-1.3c-.5-.1-1,.2-1.5.2s-2.9.4-4.1-.1-2.6-1.8-3.9-2.8L90,5.9A4.4,4.4,0,0,0,87.6,5a44.2,44.2,0,0,0-8.9-.2c-4.7.7-9.2,1.9-13.8,3a17.7,17.7,0,0,1-5.6.5L42.5,7.1a9.4,9.4,0,0,0-3.4.7c-2.9,1.6-5.8,3.4-8.6,5.2a10.9,10.9,0,0,1-4.2,2,20,20,0,0,0-9,4.1,7.9,7.9,0,0,0-2.1,2.7c-1.3,3-1,6.2-.7,9.4a2.6,2.6,0,0,0,.7,1.5A7.6,7.6,0,0,1,16.8,38c-.2,5.8-.3,11.5-.3,17.3a9,9,0,0,0,.7,2.7v.8a17.1,17.1,0,0,0,0,3.2,46.2,46.2,0,0,1,.2,15.3c-.5,4.1-1.8,8-2.6,11.9a15.5,15.5,0,0,0-.2,4.3,54.8,54.8,0,0,0,.5,5.7c.2,4.1.4,8.2.7,12.3a35.8,35.8,0,0,1-.2,9.8c-.5,3-1.1,6-1.5,9s-.4,4.2-.7,6.3-1.1,6.4-1.7,9.7a67.4,67.4,0,0,1-3.8,14c-.7,1.6-1.3,3.1-1.9,4.7l-3,9.2c-.9,2.5-1.5,5-.7,7.7a7.8,7.8,0,0,0,7.5,5.9c1.4,0,2.8-.1,4.3,0a13.6,13.6,0,0,0,6.3-1.1,1.5,1.5,0,0,1,.9.1,12.4,12.4,0,0,0,3.6,1.1,49,49,0,0,0,7.6-.8c2.8-.3,5.6-1.1,8.6-.6s7.1.9,10.4,2.5a47,47,0,0,0,7.4,2.8c3.5,1.1,7.3,1.2,11,1.6,5.5.5,11,1.2,16.6.5,3.6-.4,7.3-.9,10.9-1.6,1.5-.3,3-1.1,4.5-1.5s5.9-1.6,8.7-2.6a10.9,10.9,0,0,1,6.2-.1c2.8.7,5.6,1.6,8.4,2.2a20.3,20.3,0,0,0,5.5.1,2.4,2.4,0,0,0,2.2-3.2c-.8-3.1-1.6-6.2-3.5-8.8a31.9,31.9,0,0,1-2.3-3.2,4.6,4.6,0,0,1-.8-2.5,92.8,92.8,0,0,1,1.4-17.4C128.1,153.5,128,151.5,128.3,149.6ZM18.3,24.8a4.3,4.3,0,0,1,2.2-3.3c2.2-1.3,4.4-2.6,7-2.9S31.3,17.1,33,16a73.9,73.9,0,0,1,7.6-4.7A7.8,7.8,0,0,1,44,11l18.6,1.1a12.6,12.6,0,0,0,2.7-.4c4.5-1.1,9-2.3,13.6-3.1a28.1,28.1,0,0,1,7.1,0,4.9,4.9,0,0,1,2.8,1.1c2.9,2.2,5.6,4.5,8.4,6.8a5.8,5.8,0,0,0,3.4,1.2c1.1,0,2.2.4,3.3.5a3.3,3.3,0,0,0,1.7.1c2.1-1,3.9-.1,5.8.5a1.2,1.2,0,0,1,.7,1.1c.1,2.1,0,4.1,1.1,6a5.8,5.8,0,0,1,.1,2.3c-.1,3.8.9,7.4,1.8,11.1s1,5-1.2,7.1-1.4,2.1-2.2,3c-4.8,5-10.9,7.5-17.3,9.7-3.8,1.3-7.8,1.3-11.7,2.2s-6.6,1.7-10,2.5a32.1,32.1,0,0,1-6.2,1c-2.1.2-4.2.1-7.4.1a57.5,57.5,0,0,1-14.5-1.1c-5.1-1-10.2-2-15.2-3.5-2.9-.8-5.6-2.5-8.2-3.9a2.2,2.2,0,0,1-1-1.7c0-4,.3-8.1.3-12.1a70.6,70.6,0,0,0-.2-8,7.3,7.3,0,0,0-1.4-3.1,5,5,0,0,1-.9-3.3C18.1,27.1,18.1,26,18.3,24.8ZM124.4,149.7c-.5,4.9-1.2,9.8-1.5,14.7s-.3,6.8-.3,10.2a4.2,4.2,0,0,0,.8,2.1c.9,1.3,2,2.5,2.8,3.9s1.9,3.9,2.9,6.1a18.7,18.7,0,0,1-7.6-1.3c-2.8-.8-5.6-1.8-8.7-1.5l-2.1.3-10.2,3c-1.3.4-2.6,1.1-4,1.4-3.2.6-6.5,1.1-9.8,1.5-5.7.7-11.4-.1-17.2-.6a47.3,47.3,0,0,1-10-1.5,48.7,48.7,0,0,1-7.2-2.8c-3-1.5-6.3-1.7-9.6-2.3-5-1-9.8.4-14.7,1.1H24.5l1.5-1.5a2.1,2.1,0,0,0-.3-2.8,1.9,1.9,0,0,0-2.6.3,23.1,23.1,0,0,1-2.9,2.4,9.3,9.3,0,0,1-6.1,1.4H10.5c-3.9.3-5.3-2.9-4.6-6a75.8,75.8,0,0,1,2.4-7.7c1.4-3.9,3.1-7.7,4.3-11.6s1.9-7.4,2.7-11.1,1.3-6.6,1.8-10,.6-5.7,1-8.6,1.3-5.8,1.5-8.7,0-7.3-.1-10.9-.4-8.1-.6-12.2a7.4,7.4,0,0,0-.3-2.6,10,10,0,0,1,.2-5.7c1-3.9,2-7.9,2.6-11.8a63.2,63.2,0,0,0,.2-8.7c-.1-2.4-.3-4.8-.4-7.2l3.7,1.6c4.5,2.1,9.3,3,14.1,3.8,2,.4,3.9.9,5.9,1.2a64.7,64.7,0,0,0,13.2,1c3.9-.1,7.8,0,11.6-.3a12.3,12.3,0,0,0,4.3-1c4.9-2,10-2.6,15.1-3.2A38.8,38.8,0,0,0,98,61.9,66.9,66.9,0,0,0,108.5,57c2.7-1.7,4.9-4.2,7.3-6.3l.6-.7,4.3,10.4c.9,2.1,1.4,4.4,2.5,6.4a19.5,19.5,0,0,1,2.5,8.5,60.2,60.2,0,0,0,2.4,14.5c.4,1.3.2,2.8.4,4.2s.9,4.5,1,6.8c.2,4,0,8-.1,12.1,0,1-.3,2.1-.3,3.2.1,5.3-1.1,10.5-1.7,15.8S125.1,143.7,124.4,149.7Z"/><path d="M67,127.3l-8.7,1-.3-2.8,2.5-.4c-.5-4.9-1.1-9.7-1.7-14.6l-8.4,14L38.5,113.2c.5,4.6,1.1,9.4,1.7,14.4l2.6-.2c.1.9.2,1.7.4,2.7l-8.7,1.1-.3-2.8,3.1-.5-2.4-19.2-3.1.3-.3-2.8a22,22,0,0,1,3.6-.4c.3-.1.8.3,1.1.6l12.3,12.5a10.4,10.4,0,0,1,1,1.4l9.3-15.7c.7-1.4,1.6-2.3,3.2-2.1l1.9-.2a25.1,25.1,0,0,1,.4,2.7l-3.1.5c.8,6.4,1.5,12.8,2.3,19.3l3.1-.3C66.7,125.4,66.8,126.2,67,127.3Z"/><path d="M103.7,122.7l-7.9,1c-.1-1-.3-1.8-.4-2.8l2.8-.4c-.3-2.1-.5-4.1-.9-6s-1.5-1.8-3-1.6a4.5,4.5,0,0,0-4,5.1c.2,1.1.3,2.2.4,3.3H93c.1.9.2,1.8.4,2.8l-7.9.9a25.1,25.1,0,0,1-.4-2.7l2.7-.5c-.9-7-1.7-14-2.6-21l-2.6.2a23.6,23.6,0,0,1-.4-2.8l5.6-.7c.7,5.5,1.4,10.9,2,16.4l.6-1a6.7,6.7,0,0,1,6.7-2.9,3.9,3.9,0,0,1,3.2,3.4c.2,1.9.4,3.7.7,5.6a5,5,0,0,0,.2,1.2h2.1A21.9,21.9,0,0,1,103.7,122.7Z"/><path d="M72.7,122.1l9.1-4.6c-1-3.2-3.9-5.5-6.6-5.3a7.3,7.3,0,0,0-6.6,5.9,7,7,0,0,0,4.3,7.7,6.5,6.5,0,0,0,7.9-2l-2-1.8C76.7,123.9,74.5,123.9,72.7,122.1Zm1-6.6a3.1,3.1,0,0,1,4,.8l-6.1,3.1A3.6,3.6,0,0,1,73.7,115.5Z"/><path d="M114.2,121.4l-7.9.9-.3-2.8,2.7-.4c-.9-7-1.7-14-2.6-21.1l-2.3.2c-.1-.9-.2-1.7-.4-2.7l5.3-.7c1,8,2,15.9,2.9,23.9h2.3Z"/><path d="M110,35.7c-.3-1.1-.8-2.1-1.2-3.2s-.2-.5-.3-.8c-.6-2.1-1.2-4.2-1.9-6.3v-.3a2.1,2.1,0,0,0-2.6-.9c-1,.5-1.2,1.4-.9,2.6a14.6,14.6,0,0,1,.7,2.4c-2-1.5-3.9-1.1-5.8-1s-3,.3-4.5.4a2.9,2.9,0,0,1-1.6-.1,11.1,11.1,0,0,0-5.5-2.2c-2.8-.1-5.7-.6-8.4.7a1.1,1.1,0,0,1-1.6-.3,6.8,6.8,0,0,0-6.9-2,6.2,6.2,0,0,1-5.4-1c-1.7-1.4-4.7-1.1-6.3.2a4.7,4.7,0,0,1-5.5.7,17.5,17.5,0,0,0-7.5-1.3c-3.9.1-7.3,1.2-9.9,4.4a19.5,19.5,0,0,1-3.5,2.8l-.3-.3-.3-2.8c-.1-1.3-.8-2.1-1.9-2.1A1.9,1.9,0,0,0,27,27.5a34,34,0,0,0,.3,4.5,11.4,11.4,0,0,0,4.2,7.4,17.2,17.2,0,0,0,8.2,3.8c2.8.5,5.5.5,8.2,1s6.8,1.4,10.1,2.2,4.9,1.3,6.9,3.1a5.3,5.3,0,0,0,2.5,1.2,24.9,24.9,0,0,0,12.4-.6c5.5-1.5,10.9-3.3,16.5-4.7s8-3.3,11.7-5.5a7.1,7.1,0,0,0,.9-.7A3.2,3.2,0,0,0,110,35.7ZM105.6,37c-3.1,1.7-6.2,3.7-9.8,4.6s-9.7,2.5-14.5,4.1a29.4,29.4,0,0,1-11.8,1.6,4.6,4.6,0,0,1-2.5-1c-2.5-2.3-5.6-2.9-8.7-3.8-5.5-1.7-11.2-2.3-16.9-2.9a13.2,13.2,0,0,1-8.3-3.9l-.7-.8-.3-.6,1.3-.8A25.1,25.1,0,0,0,37.8,30a8.2,8.2,0,0,1,6.5-2.8A15.5,15.5,0,0,1,51,28.3a8.5,8.5,0,0,0,8.8-1.1,1.8,1.8,0,0,1,2.5-.1c2.2,2,4.9,1.8,7.5,1.4a4.3,4.3,0,0,1,4.3,1.4,3.8,3.8,0,0,0,4.6,1c3.9-1.5,7.8-1.5,11.3,1a4.3,4.3,0,0,0,4.6.5c.9-.4,2.2-.2,3.2-.4,3.5-.8,5.6,1.5,8,3.3C106.4,35.7,106.4,36.5,105.6,37Z"/><path d="M81.5,35.1a1.8,1.8,0,0,1-1.8,2A2.6,2.6,0,0,1,77,34.9,2.2,2.2,0,0,1,79.2,33,2.1,2.1,0,0,1,81.5,35.1Z"/><path d="M46.9,34.2A1.9,1.9,0,0,1,45.1,36a2.6,2.6,0,0,1-2.4-2.4,2,2,0,0,1,1.9-2.1C45.7,31.5,46.9,33,46.9,34.2Z"/><path d="M85.5,39.4a2.2,2.2,0,0,1-2.2,2.2c-1.1,0-1.9-1-1.9-2.4a2,2,0,0,1,2-2A2.2,2.2,0,0,1,85.5,39.4Z"/><path d="M68.8,39.8a2.3,2.3,0,0,1-2.3,2.1,2.1,2.1,0,0,1-2-2.2,2.2,2.2,0,0,1,4.3.1Z"/><path d="M94.1,37.2a1.9,1.9,0,0,1-2.2,1.7,2.1,2.1,0,0,1-2.2-2.1A2.2,2.2,0,0,1,92,34.9,2.3,2.3,0,0,1,94.1,37.2Z"/></svg>