<svg xmlns="http://www.w3.org/2000/svg" viewBox="0 0 206.1 238.6"><title>Animierte Schwarz-Weiß Zeichnung einer Mühle</title><desc>Hier sieht man eine kleine, handgezeichnete Mühle, deren Flügel sich langsam drehen. In der Tablet und Desktop Ansicht ist außerdem noch ein Mehlsack zu sehen. Und ein paar kleine Punkte die Mehl darstellen sollen, fallen langsam von oben herab in den Mehlsack.</desc><g id="haus"><path d="M153.1,208.5c-.6-1.4-.7-2.8-1.3-4.1a25,25,0,0,0-2.1-3.5c-1.7-3.2-2.9-6.1-2.8-9.6.4-8.7.4-17.3.4-26s-1.1-17.3-1.8-25.9-1.7-17-3-25.5-1.2-16.3-3-24.4-3.6-14.8-8.8-19.9a35.6,35.6,0,0,0-8.3-5.6c-3.9-2.1-8-4.1-12.4-4.7-8.4-1.1-15.4,3.4-22.7,6.5-3.1,1.2-6,2.3-8.2,4.8s-3.5,6.3-4.9,9.5C71,87.3,67.6,95,66.4,102.8s-1.9,16.8-2.7,25.1-.1,17-.4,25.4-.5,17.3.1,25.9c.2,4.1.6,8.1.9,12.1v1.1c.4.8.2,1.3-.6,1.3s-1,.4-1.3.7-2.1,3.2-2.8,4.6c-1.5,3.2-2,6.6-3.3,9.9s-3.9,8.2-5.3,12.5a13.1,13.1,0,0,0-.8,4.8c0,1,.7,3.4,1.5,3.9s4.1.8,5.4.9,4.7.1,7,.2c19.3.2,38.6-.2,57.9.5,9.8.3,19,.1,28.5-2.7,1.5-.5,4.4-.8,5.6-1.8s1-3.8.8-5.4C156.6,217.2,154.8,212.8,153.1,208.5Zm-85.8-56c.5-8.9-.5-17.9.6-26.8.5-4.1.8-8.2,1.3-12.3s.4-8.8,1.5-12.9c2.2-7.9,5.8-15.4,8.9-23,1.4-3.6,3-5.6,6.6-7.2l12.7-5.5c8-3.6,15.4-.9,22.7,3.1,3.1,1.7,6,3.5,8.2,6.3s3.6,7.4,4.8,11.2c2.3,8,2.7,16,3.5,24.2s2.8,17.9,3.4,26.9c1.5,19.2,2.5,38.4,1.6,57.6a152.5,152.5,0,0,0-20.3.6c-6.8.6-13.3,1-20.1,1.2a97.3,97.3,0,0,0,.7-13.2c-.2-2-.7-3.9-.8-5.8s.1-3.3-.7-4.9c-3.2-6.5-12.1-6-16.9-1.9a13.4,13.4,0,0,0-3.1,3.6c-.9,1.7-.3,3.4-.5,5.2C81,183,79,186.7,78.7,191a8.2,8.2,0,0,1,0,2.7c-.3.9,0,.6-1.1.8s-4.5-.4-6.5-.6-2.8-.9-3-3.4-.4-4.4-.5-6.5A207,207,0,0,1,67.3,152.5Zm17.9,24.8c-.8-5.1,8.1-8,11.7-5.4s2,4.4,2.3,6.9a68.5,68.5,0,0,1,.1,11.1,34,34,0,0,1-.3,4.5c-.3,1.8-.8,1.5-2.6,1.3l-10.4-1a9,9,0,0,1-2.4-.2c-1.2-.4-1.1-.2-1.1-1.7a29.4,29.4,0,0,1,.5-5.1C83.6,184.3,85.7,180.9,85.2,177.3ZM64.1,198.5c1.9-2.3,8.2-.5,10.7-.4s7.7.1,11.5.6a161.7,161.7,0,0,0,23.1.9c7.7-.2,15.4-1.3,23.2-1.5l5.8-.2c1.4,0,3.7-.5,5.1,0s3.4,5.8,3.3,8.1a153.3,153.3,0,0,0-21.4,1,86.8,86.8,0,0,1-21.6.5c-14.1-1.3-28.4-.6-42.6-1.6C62.2,203.5,62.4,200.6,64.1,198.5Zm88.2,26.1c-3.4.9-7.1,2.4-10.6,2.8s-7.7.5-11.5.6c-7.5.1-15-.4-22.4-.4-14.7,0-29.6,0-44.3-.2-2,0-8.4.6-9.4-1.7s1-3.4,1.4-4.4,1.3-3.5,2-5.2,1.3-3.4,2.1-5,1.2-1.3,2.9-1.2l11.8.3c7.4,0,14.9.2,22.3.6s14.8,1.7,22.2.9c4.2-.4,8.4-1.2,12.6-1.6s8.6-.4,12.9-.5c1.2,0,4-.5,5.1.2s1.5,3.8,1.9,5S154.9,223.9,152.3,224.6Z"/></g></svg>