<svg xmlns="http://www.w3.org/2000/svg" viewBox="0 0 206.1 238.6"><title>Animierte Schwarz-Weiß Zeichnung einer Mühle</title><desc>Hier sieht man eine kleine, handgezeichnete Mühle, deren Flügel sich langsam drehen. In der Tablet und Desktop Ansicht ist außerdem noch ein Mehlsack zu sehen. Und ein paar kleine Punkte die Mehl darstellen sollen, fallen langsam von oben herab in den Mehlsack.</desc><g id="rad"><path d="M174.9,137.8c-9.3-10.3-21.2-18-30.9-27.9L129.1,95.1c-1.2-1.1-1.9-2-3.6-1.4s-3.2,1.8-4.6,2.6l-9.5,5.5c-.7-1.2-2.9-3.6-3.1-5s.7-2,.8-3.2-.3-2.1.5-3,3.6-2.4,5-3.3c6.1-4,12-8.2,18-12.2,2.7-1.8,4.8-4.1,7.2-6.2s6.1-4.5,9.2-6.6c6.4-4.1,12.9-7.9,19-12.3l4.3-3.1c1-.8,2.6-1.5,3-2.9s-3.1-5.9-4.7-7.9-3.4-5-5.4-6.8-6.7,1.6-9.1,3.1a102.1,102.1,0,0,0-16.6,14.2,54.5,54.5,0,0,1-7.8,6.6c-3.1,2.2-6.5,4-9.3,6.6s-6.5,5.9-9.5,9-2,2.9-.7,5a35.8,35.8,0,0,1,2.9,4.6c.7,1.2,1.7,2.6.8,3.9s-3.7,2.4-5,3.2-2.7,1.9-4.8,1.5-3.8-.6-5.5.8c-5-4.4-9.8-8.3-13.8-13.7a98.9,98.9,0,0,0-13-14.4C68.6,54.9,63.6,50,58.1,45.8s-7.5-11-12.4-15.7-10.1,2.4-13.3,6c-1.7,2.1-3.6,4.8-3.3,7.6s3.2,5.8,4.9,7.9,4.5,3.9,6.9,6a67.8,67.8,0,0,1,6.2,6.9c4.2,4.9,7.8,10,12.7,14.2,3,2.6,6,5.1,9.2,7.4s5.1,4.9,7.6,7.7,4.5,2,7.1,0,6.4-5.2,9.6-7.7c2,1.7,5.3,3.3,5.3,6.3s-.1,1.8-1.3,2.8a30.1,30.1,0,0,1-4.9,2.9c-6.6,3.8-12.9,7.6-19.2,11.8-2.8,1.9-6,3.4-8.9,5.2s-6.2,4.6-9.4,6.6c-6.5,4.1-12.5,9-19.3,12.6-2.8,1.4-5.9,3-7.9,5.6s-1,5.9.8,8.9,3.5,6.5,6.2,7.4,6.7-2.5,9-3.6c6.5-3.4,13.3-6.1,19.8-9.7,3.3-1.8,6.8-3.4,10.2-5.3a65.8,65.8,0,0,0,8.8-6.1c3.3-2.4,7.1-4.1,10.7-6.1l5.2-2.8c1.6-.8,4.3-1.6,5.5-3.1,2.3-3.2-2.2-6-4-7.9s-4.3-6.7-7-9.7c1.8-1.1,3.5-2.3,5.4-3.3s3.4-.5,5.4-.2,5.3,6,7,8.7c4.6,7.1,10.9,12,17.3,17.4s11.3,12.1,17.9,17c3.3,2.5,7,4.7,10.5,7.1,1.4.9,2.9,1.5,4.2,2.5a20.3,20.3,0,0,0,4.5,2.6c4.9,1.7,6.3-1.3,8.9-4.9S178.4,141.6,174.9,137.8Zm-12-105.6,8.9,10.7L170.3,44c-4.5-2.3-7.8-5.9-11.4-9.3Zm-9,6,2.1-1.4,10.5,9.7L161.9,50C162,46.5,149.6,41.3,153.9,38.2Zm-4.5,3.4a37,37,0,0,0,10.4,9.7l-4.2,2.4-11-7.7Zm-9,8.7c2.1-2.2,2.1-1.9,4.5,0a85.7,85.7,0,0,0,7.9,5.5c-1.7,1.2-3.6,2.2-5.3,3.2l-4.7-4.5C141.8,53.5,139,51.8,140.4,50.3Zm-3.3,3.4,7.5,7.5c-2,1.2-3,2.3-5.4.7s-3.5-4-5.1-5.9ZM130,58.9c2.9-.5,6.2,5,7.8,6.7l-3.1,3.5c-2.4-3.1-6-4.9-8-8.5A13,13,0,0,1,130,58.9Zm-6.4,4.2,8.5,8.2-4.8,3.2c-2.5-2.7-5.4-4.9-6.7-8.6Zm-8.8,8.6,2.7-3c2.4,2.7,4.6,5.3,6.9,8.1L119.9,80A35.7,35.7,0,0,0,114.8,71.7ZM37.4,50.4c-2-3.2-5.8-6.6-3.3-10.4a40.7,40.7,0,0,1,4-4.3c1-1,2.9-3.8,4.6-3.7s2.4,3,3.1,4.2,1.4,2.8.1,4.8A62.8,62.8,0,0,1,37.4,50.4Zm7.9,6.5-4.9-4.2,9.2-10.5L54.7,48Zm2.3,2.7c3.4-3.2,6.8-6.4,10-9.8l4.3,3.5L51.7,64.5Zm6.3,7.7c3.6-3.8,6.5-8.1,10.8-11.3L70,60.7c-4.6,3.4-8.9,6.7-12.1,11.7ZM66.3,78.4c-1.6,1.2-4.7-2.8-5.9-3.8,1.7-2,3.3-4,5.1-5.9s4.6-3.7,6.9-5.5c.9.8,3.5,2.5,3.9,3.6s-1.7,3.3-2.6,4.1l-4.1,3.8A29.9,29.9,0,0,1,66.3,78.4Zm2.2,3.1c2.5-4.6,7.4-7.7,10.7-11.6l3.9,4.8L72.1,84ZM81,91.5c-1.8,1.5-5.1-4-6.2-5.3l10.1-8.5,5.7,6.2ZM36.5,152c-1.6.8-4.3-4.5-5-5.6-1.7-2.8-1.4-3.7,1.1-5.8l8.5,8.8C39.5,150.3,38.1,151.2,36.5,152Zm8.7-4c-1.9.9-6.6-5.9-7.7-7.2s-1.9-1.9-1.1-3.1,4-1.8,4.9-2.3c2.5,3.6,5.1,7.1,7.7,10.9Zm6.9-3.5c-2.3-2.9-4.4-6-6.5-9-1-1.4-1.7-1.9-.3-3.2s2.9-2,4.2-3a50.1,50.1,0,0,1,6.8,13.2Zm7.5-3.5c-1.2-2.4-2-4.9-3.2-7.3s-2.6-4.1-3.2-6.8l6-4c3.1,4.6,6,9.1,9.1,13.9Zm12.3-6.4c-1.4.6-5.9-7.8-6.6-8.9s-2.9-3.3-2.8-4.5,2.7-2.6,3.6-3.3c4.9,3.8,7.4,9,9.6,14.7A33.9,33.9,0,0,1,71.9,134.6Zm9.2-6.4a31,31,0,0,0-2.6,1.8c-2.3-5.2-4.6-10.2-9.1-13.8l5.4-3.1c1.4,2.5,2.8,5.1,4.1,7.7S83.1,127,81.1,128.2Zm4.4-2.4-7.7-15,3.7-2.7,8.7,15.1Zm8.7-16.5a18.7,18.7,0,0,0,6.9,7.6c-1.4,2.1-5.6,3.3-7.9,4.5-2.7-5.1-6.5-9.5-7.1-15.6,1.7-1.1,2.6-1.8,4.5-.7A8.7,8.7,0,0,1,94.2,109.3Zm21.4-1.1-2.4-3.5,13-7.4,1.3,1.2Zm6.4,6.5-4.2-3.6a120.8,120.8,0,0,1,12.1-9.8c.7.7,3.2,2.1,3.4,3.2s-2.5,2.8-3.3,3.4Zm7.5,6.7c-1.6-1.2-3.3-2.6-5-4.1l11.9-10.2,3.3,3.5C136.6,114.6,133.8,118.5,129.5,121.4Zm3,2.1c3.8-2.7,6.6-6.5,9.6-10.3l4.1,3.8-9.1,10.9Zm6.9,7.2,9.5-11.5,4.5,3.9-9.8,11.5Zm12.8,10.6a21.2,21.2,0,0,1-6.1-4.3c3.5-3.6,6.1-8,10.2-11.4l7.1,5.7-5.9,5.6C156.7,137.7,153.4,141.9,152.2,141.3Zm7.8,4.5c-.9,1.1-3.9-1.7-4.5-2.1a70.1,70.1,0,0,0,5.5-5.4c1-1,3.9-4.4,5.5-4.1s-.3,3.6-1,4.4C163.6,141,162,143.5,160,145.8Zm12.9-1.8-2.5,3.5c-.6.7-1.4,2.5-2.3,2.8s-4.2-1.2-4.8-2.4c2.5-2.8,4.6-6.1,7-9.1C171.5,140.1,174.3,141.9,172.9,144Z"/></g></svg>