<svg id="pfeil_flach" xmlns="http://www.w3.org/2000/svg" viewBox="0 0 230.8 58.2"><path d="M223.7,20.3c-.2,3.1-2.8-.7-2.9-1.1s.3-7.7-1.1-8.4c-4.3,5.6-9.5,9.1-15,13.2s-10.2,7.9-16.5,10.3a213.9,213.9,0,0,1-44.6,11c-30.8,4.2-63.3,10.1-94.4,6.8-7.2-.8-13.9-3.3-21-4.3s-14.9-2-22.3-4.6c-3.6-1.3-3.6-3.6.5-2.9s6.6,2.1,9.8,2.9C23.4,45,30.7,45,37.8,47c14,4,28.9,2.9,43.3,2.3,16.7-.7,32.6-3,49.1-5.5,8.1-1.3,16.2-1.8,24.3-3.5s17.7-4.2,26.5-6.7,12.7-5.8,19.2-10.1S213,15.7,217,9.5c-1.5.1-11.4,2.4-11.4-.3s8.4-2.7,10.1-3.3c3.4-1,6-3,7.2,1S223.8,16.3,223.7,20.3Z" /></svg>