<svg id="semmel" xmlns="http://www.w3.org/2000/svg" viewBox="0 0 146 101.3"><title>Zeichenfläche 1</title><path d="M139.9,66.2c-.4-4.9.3-10-1.2-14.9s-4.3-11.7-8.1-16.2-9.6-7-14.4-10.6-7.1-8.1-11.6-11.4A39.8,39.8,0,0,0,90.4,6.6C84,5.1,80.6,7.8,74.6,9c-3,.6-5.4-.7-8.4-1a52.2,52.2,0,0,0-7.9.3A81.3,81.3,0,0,0,39.5,12c-5.6,1.8-9.4,4.8-13.8,8.6S15.5,23.7,11,27.2C1.9,34.5,5,52.8,8.3,62.3c8.2,24.2,40.1,30.3,62,34.1,8,1.4,15,2.1,23.1.5s14.8-3.3,22.1-5.1C127.7,88.6,141.1,80.9,139.9,66.2Zm-6,9.9C128,86.2,117.3,87.5,106.8,90s-22.2,5.4-34.3,3.2C53.3,89.8,30.6,86,16.7,70.8,9.7,63.1,9,51,9.3,41.2c.2-3.9.2-7.9,3.3-10.7s9.7-1.7,13.5-4.9,5.5-6.1,9.8-8.3,9.7-3.4,14.7-4.4c9.2-1.8,19.4-2.8,26.2,4.4A80.3,80.3,0,0,1,87.1,30.8c1.4,2.3,2.7,5.5,4.6,7.4s3.8,2.2,3.7-.9-3.5-5.6-4.6-7.2l-4.7-7.4C83.6,18.6,81,14.6,77,12c6-2.3,10.4-2.8,16.6-.7s12.4,6.3,15.8,11.8c-2.5.6-8.6.1-10.6,1.8-4,3.4,2.9,2.9,4.6,2.6s7-1.3,9.6-.6,8,4.7,10.9,6.9c5.9,4.3,10.1,12.4,11.8,19.5S137.4,70.1,133.9,76.1Z"/><path d="M78,46.8c-.1,3.4-4.3,1.5-6.2,1.3a30.3,30.3,0,0,0-9.5.6,22,22,0,0,0-7.9,2.8c-1.4.8-4.4,4.4-5.6,1.4S60,45.4,62.5,45C67.1,44.2,74.6,43,78,46.8Z"/><path d="M65.3,22.3c-1.3,1.2-2.9-.1-4.3-.4a28.2,28.2,0,0,0-8.2-.1c-1.3.2-10.8,4.9-8.1-.6,1.4-2.7,9.4-3.3,12-3.2S69.1,18.6,65.3,22.3Z"/><path d="M77,33.1c-.2,3.1-8,.8-10,1S56.1,39,57,34.6,77.4,28.8,77,33.1Z"/><path d="M102.7,58.8c-.1,1.5-.9,2.5-2.4,2.2s-1.4-3-1.6-3.7-.8-4.2-1.3-6.3-2.3-4.8-2-6.2c1.1-5,4,.1,4.6,2.3C101.2,50.9,101.9,55,102.7,58.8Z"/><path d="M122.1,42.8a1.8,1.8,0,0,1-2.9,1.3c-.9-.5-.6-2.6-1.2-3.4s-4.3-1.8-4.7-3.3,3.4-2.3,5-1.5A7.2,7.2,0,0,1,122.1,42.8Z"/><path d="M100.7,20.2c-.3,2-10.3,3.3-8.1-1C93.7,17.1,101.3,17.1,100.7,20.2Z"/><path d="M130.3,73.9c-1.5,2.4-6.9,3.8-5.2-.3S130.1,70.6,130.3,73.9Z"/><path d="M23,35.6c-.5,2.1-3.5,4.3-4.3,1S23.9,32,23,35.6Z"/><path d="M39.1,76.8c-1.3,1.7-4.3,1.5-4.6-1.2S39.1,73.8,39.1,76.8Z"/><path d="M52.9,83.2c-1.2,1.1-5.2,2.9-5.3-.5S51.7,81.8,52.9,83.2Z"/></svg>