<svg id="stefan" xmlns="http://www.w3.org/2000/svg" viewBox="0 0 189.8 338.9"><title>Zeichenfläche 1</title><path d="M184.8,308.9c-.1-13.5-3.5-23.4-16.3-28.9s-21.4-12.5-33.3-17.5c-2.2-.9-5.3-1.5-7.2-3.2a58.1,58.1,0,0,1-4.3-4.3c-1.6-1.7-3.3-2.5-5.7-3.8s-5.1-2.2-6.2-6.7a16.7,16.7,0,0,1,3.7-15.5c4.5-5.3,7.2-11.6,10-18s3.8-10.8,7-15.8c.5-.6,1.2-2.4,1.7-2.9s1.7-.7,2.4-1.2,3.3-5.3,4-7.8,2.7-10.3,1.1-13.9-1.9-2.4-1.4-5.5.6-7.9,1.4-12c2.9-13.4,5.9-26.8,8.1-40.3,1-6.2,3-12.4,4.5-18.4.6-2.5.6-7,1.7-9s5.1-3.5,7.5-4.9c11.3-7,15.6-19.2,12.6-32a48.5,48.5,0,0,0-6.9-15.2c-4.2-5.6-9-6.6-15.7-5.3-1.4.3-6.6,2.7-8.1,2s-1.2-2.7-1.5-4.2c-1.2-5.3-4.7-13.5-8.7-17.2s-11.7-3.6-17.4-3.5c-7.3,0-13.7.5-20.4,3.8-4.8,2.4-9.4,5.4-12.7,9.7-1.3,1.7-3.1,6.9-4.8,7.5s-5.9-2.1-8-2.5a23.8,23.8,0,0,0-17.3,3.1c-5.5,3.4-6.8,9.1-9.1,14.8s-1.8,11.5-.4,17.1,5.3,9.6,6,15.1c1.7,13.9,6,27.2,9.4,40.7,1.6,6.3,3.9,13.9,3.5,20.4s-2.4,14.6-4.1,21.6c-.7,3,0,5.7-.3,8.5s-.3,5.4-.7,7.9-1.8,6.7-1.3,10.4,2.8,4,4,6.7-.5,5.9-.1,8.4c.1.9,1.6,3.1,1.8,4.1s.9,3.9,1.4,5.9c2,7.2,5,13.5,8,20.3,1.9,4.3,3.4,15.4-1.2,19-2.4,1.9-4.4-.8-6.9,1s-3.7,7.3-5,9.9c-2.5-2.8-8.4,1.6-11.2,2.7-4.4,1.8-8.9,3.4-13.3,5.3-7.2,3.1-15.1,6-20.7,11.7S8.7,292.3,8,300.2c-.4,4.8-.7,9.6-1,14.4s-1.8,10-.5,13.3,3.7-.7,3.9-2.9c.4-5.1.4-10.3.7-15.5.5-8.1-.2-20,4-27.2S27.4,272.7,34,270c8.5-3.5,17.1-6.8,25.5-10.7,2.5,6.5,7.6,11.6,11.6,17,1.5,2,5.5,7,8.2,7.1s1.6-.5,3.2-1.5l2.6-1.6c5.2-3,11.1-11,15.4-2.9,1.6,3.1,2,4.3,5.8,2.5s7.7-5.6,11.4-8.2,5.3-4.1,7.9-6.3,1-1.7,3.9-.9,3.7,1.6,5.6,2.3a75.9,75.9,0,0,1,9.9,4.9c3,1.7,6.5,2.8,9,5,5.8,4.8,13.9,5.9,19.9,10.5s6.9,12.7,7,19.6c.1,5.2.4,10.7,0,15.9-.2,1.9-2,5.9-.3,7.4,3.6,2.9,3.9-4.5,4-6.1C185,319,184.8,313.9,184.8,308.9ZM60.6,98c-2.1-8-4.3-15.9-5.6-24,5,2.1,3-2.8,1.2-5.1C52.9,65,50.1,61.8,49,56.7s-1.9-9.9,0-15,2.6-8.7,5.7-11.6c6-5.9,15-4.5,22.1-2,4,1.4,5.1.9,7.4-2.6s5.3-8.4,9.7-11.4c8.8-6.1,17.8-6.5,28.2-6.3,4,.1,8.7,0,11.5,3.4A43.6,43.6,0,0,1,140,24.6c.8,3.3.3,7.1,4.2,7.9s9.1-2.2,13.2-2.4,6.8,1.4,9.3,5.3a49.9,49.9,0,0,1,5.6,12.2c2.6,9.5.1,19.7-7.6,26.1-4.1,3.4-8.7,5.4-13.7,7.5-1.3.5-3.6.6-3.2,2.7s3,1.5,4.5,1c-1.7,8-4.6,15.9-6,24s-2.1,15-4.2,22.3c-1.7-1-5.5-2.2-6.7-3.7s-.4-3.4.1-5.5c1.2-5.4,3.3-11.4,3.7-16.9.1-1.9-.2-4.3-2.7-2.9s-2,5.5-2.4,7.3c-1.2,5.4-2.5,10.8-3.4,16.3-3.9-1.9-8.2-2.2-12.4-2.6-2.7-.3-3.1.4-3.4-2.3s.4-4,.6-5.6c1.2-8.9,2.9-17.9,4.6-26.7.3-1.6,1-8.2-2.7-5.4-1.9,1.4-2.3,10.3-2.6,12.5-1.5,8.8-1.9,18.1-3.9,26.8-6.4-2.1-13.1-1.8-19.7-1.7.4-6.6.6-13.2,1.2-19.8.2-1.6,1.5-5.2-.1-6.3s-3.2,1.6-3.5,3c-1.2,5.7-.7,12.3-1.1,18.1-.1,1.6.3,4.2-.9,5.4s-6.7,2-8.7,2.4a81.5,81.5,0,0,0-1.6-8.6c-.7-2-2.6-4.7-3.9-1.3s1.5,6.5,1.4,9.2.7,1.4-1.4,2.7-3.8,1.4-5.4,2C65.6,117.5,63.1,107.9,60.6,98Zm4,57.9-.8.2c1.1-5.3,2.3-10.6,3.2-15.9s0-8.4,5.9-10.6c10.9-4.1,20.9-6.3,32.7-4.4,10.1,1.5,21.6,1.7,30.7,7.1,5.4,3.2,4.4,5.5,3.3,11.2s-2.6,11-3.2,16.5c-5.2-1.6-9.8-4.2-15.3-5.3s-13.1-2.7-19.6-3.5C89.5,149.8,76.3,153.3,64.6,155.9Zm4.2,51.4a94.4,94.4,0,0,1-3.2-16c-.4-4,1.2-5.8,2.8-9.1s2.6-6.7,1.3-11.5a22.5,22.5,0,0,1-1.2-5.6c.1-2.4,2-4.3.9-6.7,8.9-1.5,17.7-3,26.7-3.4s19.4,2.1,28.5,4.5c5.1,1.3,4.2,1.5,3.9,5.7-.3,2.6.7,3.5,1.6,5.8s.3,3.6.9,5.2,2,2.5,2.2,3.2-.9,1.9-1.2,2.5c-1.3,3.5-1.2,7.3-2.6,10.7s-4.1,7.4-5.5,11.5a97.7,97.7,0,0,1-5.1,12.6c-3.6,6.9-7.6,13.3-14.8,17s-16.5.7-23.5-3.6S70.9,214.7,68.8,207.3Zm19.4,66.2c-2.2,1.3-6.7,5.1-9.4,4.7s-4.9-4.7-6.3-6.8-4.9-6.1-7.1-9.2-.9-6.3,1.7-10.7c4.2,10.6,14.4,15,23.9,19.9ZM98.7,268c-3.3,2.8-10.1-1.9-13.2-3.5s-8.9-4.8-11.8-8.9l-1.6-3.2c-1.1-1.1-.8-1.9.7-2.2s2.8-2.6,3.7-4.6c1.8-3.9,1.5-8.3,1.5-12.5,4.7,2.3,9.7,5.6,14.9,6.1s9.9-.6,14.8-3.3c0,3.5-.5,7.5.7,10.8a14.4,14.4,0,0,0,2.5,3.9l2.7,2.3a24.3,24.3,0,0,0-1.4,2C110,261,103.2,264,98.7,268Zm24.9-6.3a110.9,110.9,0,0,1-19.2,14.9,15.5,15.5,0,0,0-3.6-5.4c4.5-3.7,9.2-6.4,12.6-11.2.8-1.1,1.4-2.4,2.2-3.3s1-1.4,3.4-.4S125.2,260.2,123.6,261.7Z"/><path d="M112.9,212.2c-5.6,4.5-13.3,5.5-19.1,1.3a22.4,22.4,0,0,1-6.4-6.6c-1.2-2.1-1.7-7.2,2.1-4.6,1,.6,1.4,2.9,2,3.9a17.7,17.7,0,0,0,3,3.1c2.5,2,4.8,3.5,8.1,3.1a13.8,13.8,0,0,0,5.6-1.9,7.5,7.5,0,0,0,2-1,12.7,12.7,0,0,1,.6-1.8C114.2,205.2,115.6,210.1,112.9,212.2Z"/><path d="M125.1,175.7c-.9,4.3-2.5,1.6-4.1.2a7.5,7.5,0,0,0-4.2-2.5c-1.6-.2-3.3,1-4.6.7s-1.9-1.9-1.3-3.2,4.2-1.8,6-1.6S125.1,171.8,125.1,175.7Z"/><path d="M90.8,172.4c-1.2,2-2.9-.1-4.3-.3a6.9,6.9,0,0,0-3.7.8c-1.5.8-5.3,3.4-4.8-.6.3-1.7,4.1-3.7,5.6-4S92.9,169,90.8,172.4Z"/><path d="M105,193.9c-1.1,7.6-13.4,3.5-10.7-.4,1.6-2.2,4.2,1.8,6.7.1.9-.7.5-2.1,2.1-2.1A1.9,1.9,0,0,1,105,193.9Z"/><path d="M88.5,177.1c0,3.9-6.1,2.7-5.2-1S88.6,174.1,88.5,177.1Z"/><path d="M118,179.5c-.2,2.5-4.9,2.4-5.3.1S118.2,175.8,118,179.5Z"/></svg>