<?xml version="1.0" encoding="utf-8"?>
<!-- Generator: Adobe Illustrator 23.0.1, SVG Export Plug-In . SVG Version: 6.00 Build 0)  -->
<svg version="1.1" id="unterlage_x5F_rand" xmlns="http://www.w3.org/2000/svg" xmlns:xlink="http://www.w3.org/1999/xlink" x="0px"
	 y="0px" viewBox="0 0 38.5 20.3" style="enable-background:new 0 0 38.5 20.3;" xml:space="preserve">
<style type="text/css">
	.st0{fill:#F9F4F1;}
</style>
<title>Zeichenfläche 1</title>
<path class="st0" d="M38.5,20.8L38.5,20.8L38.5,20.8L38.5,20.8L38.5,20.8z"/>
<path class="st0" d="M36.1,10.9c-3.5-0.4-7.8-6-7.8-7.5s0-3.1-9.3-3.1S9,0.7,9,3.6c0,2.9-3.6,7.7-8.6,7.7h-0.5v9.1h38.6v-9.5
	C37.6,10.9,36.8,11,36.1,10.9z M14,12.9c-0.9,0-1.6-0.7-1.6-1.4c-0.1-0.7,0.6-1.4,1.6-1.4c0.9,0,1.6,0.7,1.6,1.4
	C15.6,12.3,14.8,12.9,14,12.9z M19,8c-0.9,0-1.6-0.7-1.6-1.4c0-0.7,0.6-1.4,1.6-1.4c0.9,0,1.6,0.7,1.6,1.4C20.6,7.3,19.8,8,19,8z
	 M23.1,12.9c-0.9,0-1.6-0.7-1.6-1.4c-0.1-0.7,0.7-1.4,1.6-1.4c0.9,0,1.6,0.7,1.6,1.4C24.7,12.3,23.9,12.9,23.1,12.9z"/>
<path class="st0" d="M38.5,20.8L38.5,20.8L38.5,20.8L38.5,20.8L38.5,20.8z"/>
</svg>
