<?xml version="1.0" encoding="utf-8"?>
<!-- Generator: Adobe Illustrator 23.0.1, SVG Export Plug-In . SVG Version: 6.00 Build 0)  -->
<svg version="1.1" id="Ebene_1" xmlns="http://www.w3.org/2000/svg" xmlns:xlink="http://www.w3.org/1999/xlink" x="0px" y="0px"
	 viewBox="0 0 53.9 53.9" style="enable-background:new 0 0 53.9 53.9;" xml:space="preserve">
<style type="text/css">
	.st0{fill:#F9F4F1;}
</style>
<path class="st0" d="M49.8,28.6c0.3-0.8,0.2-1.9,0.2-2.8c0-1.5-0.3-3.1-0.7-4.6c-0.4-1.6-0.6-3.3-1.6-4.6c-1.6-2.1-3.3-4.1-5-5.8
	c-0.3-0.3-0.5-0.8-0.5-0.9C42,8.8,41.2,9,41.1,8c0-0.2-0.4-0.6-0.8-0.7c-1.5-0.8-3.2-1.6-4.8-2.1c-2.2-0.8-4.4-1.9-6.9-1.8h-5.4
	c-0.8,0.1-1.8,0.1-2.7,0.3s-1.9,0.5-2.7,1c-1,0.7-2.1,1.3-3.2,1.8C13,7.3,11.2,8,9.9,9.2c-2.2,2.1-3.8,4.8-5.2,7.4
	c-0.9,1.7-1.5,3.7-1.6,5.7v0.9c-0.1,1-0.3,1.4,0,3c0.1,0.4,0,1.2-0.1,1.6c-0.3,1.8-0.6,2.9,0.2,4.7c0.3,0.7,0.6,1.5,0.7,2.3
	c0,0.5,0.2,0.9,0.4,1.3c0.7,1.6,1.6,3.1,2.5,4.6c0.8,1.4,1.2,3.1,2.9,3.8c1.3,0.6,2.3,1.8,3.6,2.4c1,0.5,1.9,1.2,2.8,1.7
	c1.5,0.9,3.2,1.6,5.1,1.5c0.7-0.1,1.3-0.1,2,0.1c2,0.6,4,0.4,6,0.1c2.6-0.4,5.3-0.9,7.3-2.8c0.9-0.9,2.2-0.5,3.1-1.3
	c1.2-1.1,2.5-2,3.5-3.2c1.4-1.8,3.2-3.4,3.9-5.7c0.1-0.3,0.3-0.6,0.5-0.9c0.3-0.6,0.6-1.8,0.8-2.2C49.3,32.4,49,30.4,49.8,28.6z
	 M40.3,25.6c-0.3,2.7-0.7,5.4-2.2,7.7c-0.7,1.1-1.7,1.9-3,2.3c-1,0.4-1.7,1.2-2.6,1.8c-2,1.2-4.3,0.9-6.4,0.3
	c-0.7-0.2-1.1-1-1.5-1.6c-0.2-0.3-0.3-0.7-0.8-0.6c-0.3,0.1-0.6,0.2-0.8,0.6c-0.8,3.2-2.8,5.9-3.8,9.1c-0.2,0.5-0.3,0.6-0.6,1.1
	c0,0-0.3,0.4-0.4,0.3c-0.2,0-0.2-0.3-0.2-0.5c0.2-1.5,0.5-3,0.7-4.5c0.2-1.1,0.3-2.2,0.3-3.3s0.5-2.2,0.8-3.3
	c0.5-2.1,1.5-4.1,1.1-6.3c-0.2-1.4-0.3-2.8-0.2-4.1c0.1-1.6,0-3.3,1.7-4.3c0.4-0.2,0.7-0.4,1.1-0.5c1.7-0.3,3.5,0.8,3.8,2.5
	c0.2,1.3-0.2,2.5-1.3,3.5c-0.9,0.8-1.2,1.7-1.2,3c0,0.9,0.2,1.6,0.3,2.4c0.3,2,2.3,3.6,4.5,3.1c0.8-0.2,1.7,0,2.5-0.6
	c1.2-0.9,1.9-2,2.7-3.2c0.9-1.5,1.1-3.3,1.2-5.1c0.1-1.4-0.6-1.8-0.4-3c0-0.4-0.1-1.4-0.2-1.7c-1.1-2.2-2.4-4.1-4.8-5.1
	c-1.8-0.7-3.5-0.8-5.4-0.6c-2,0.2-3.5,1.4-5.2,2c-0.6,0.2-0.8,0.8-1.3,1.2c-2.3,2.3-3.7,4.9-3.2,8.3c0.1,1,0.7,1.9,1.3,2.6
	s0.7,1.5,0.5,2.3c-0.2,0.8-1.1,1.2-1.8,0.8c-2.7-1.6-3.5-4.1-3.3-7.1c0.1-1.4-0.1-2.8,0.3-4.1c0.7-2.2,1.6-4.3,4-5.3
	c1.3-0.6,2.2-1.8,3.4-2.6s2.7-0.7,4-1.2c1.4-0.6,2.8-0.3,4.2-0.4c0.2,0,0.5,0.1,0.7,0.1c1.6-0.4,2.8,0.8,4.2,1.2
	c1.5,0.4,2.8,1.3,3.8,2.5c1.1,1.2,2.1,2.5,2.7,4.1c0.3,1,0.6,2.1,0.7,3.1C40.1,23.5,40.4,24.5,40.3,25.6z"/>
</svg>
