<?xml version="1.0" encoding="utf-8"?>
<!-- Generator: Adobe Illustrator 23.0.1, SVG Export Plug-In . SVG Version: 6.00 Build 0)  -->
<svg version="1.1" id="Ebene_1" xmlns="http://www.w3.org/2000/svg" xmlns:xlink="http://www.w3.org/1999/xlink" x="0px" y="0px"
	 viewBox="0 0 53.9 53.9" style="enable-background:new 0 0 53.9 53.9;" xml:space="preserve">
<style type="text/css">
	.st0{fill:#F9F4F1;}
</style>
<path class="st0" d="M52.8,38.4c-0.2-0.9-2.1-1.2-2.3-1.4c-2.3-0.6-6.3-3.2-6.4-3.4c-0.9-1.2-1.9-2.2-2.7-3.4
	c-0.4-0.7-0.7-1.4-0.4-2.1c0.2-0.7,0.8-0.7,1.4-1c1.2-0.5,2.8-0.3,3.5-1.8c0,0,0.2-0.4,0.2-0.5c0.1-0.2,0.7-1.2,0.4-1.7
	c-0.4-0.7-0.7-1.7-1.5-1.7c-0.9,0-1.8-0.2-2.7-0.1c-0.6,0.1-1.8-0.7-1.7-1.8c0.1-0.9-0.5-1.8,0.1-2.8c0.2-0.3,0.2-1.3,0-1.7
	c-0.3-0.7-0.7-1.3-0.5-2.2c0.3-1.1-0.6-2-1-3S38.5,8,37.5,7.4c-0.5-0.3-0.9-0.7-1.3-1c-0.8-0.9-1.7-1.6-2.9-1.9
	c-0.9-0.2-1.8-0.5-2.6-0.9c-1.3-0.7-2.9-0.3-4.3-0.7c-1-0.3-1.5,0.7-2.5,0.6c-2-0.1-3.8,0.8-5.5,1.9c-0.9,0.6-1.5,1.5-2.2,2.3
	c-2.3,2.2-3.8,4.9-3.9,8.3c0,0.4,0.2,0.8,0.1,1.2c-0.3,1.3-0.4,2.5-0.1,3.9c0,0.2-0.6,0.8-1,0.6c-1.1-0.7-2-1-3.1-0.9
	c-1.9,0.2-2.9,3-1.8,4.5c0.9,1.2,2.2,1.6,3.5,2.1c0.9,0.3,2.1,0.6,2.1,1.7c0,1.4-0.5,2.7-1.7,3.5c-0.7,0.5-1.3,1-1.8,1.7
	c-1.2,1.7-2.7,2.9-4.9,3.2c-0.5,0.1-1,0.2-1.5,0.4c-1,0.9-1.1,2.1,0,3c0.7,0.6,2.2,0.4,3.1,0.8s3.9,2.3,4.1,3.2
	c0.3,1,0.7,1.7,1.7,1.4c0.9-0.2,1.7-0.4,2.6-0.8c1.3-0.6,2.9-1,4.2,0.2c0.9,0.9,2.2,1.1,3.2,2c1.4,1.3,2.9,2.7,5.1,2.6h2.2
	c0.2,0,0.8-0.2,0.8-0.2c0.2-0.1,0.5-0.2,0.7-0.4c0.1-0.1,0.7-0.3,1-0.3c0.4,0,0.6-0.3,0.7-0.7c0.2-0.4,1.7-0.9,1.9-1.2
	c0.3-0.3,0.5-0.6,1-0.8c1.6-0.6,5.1-1.1,5.3-1.1h0.2c0.5,0,1.1-0.1,1.6,0c1.9,0.2,3.5-0.6,3.4-2.6c0-0.4,0.2-0.5,0.4-0.6
	c0.7-0.1,1.3-0.5,2-0.6c1.3-0.3,2.6-0.7,3.9-1.1C52.5,40.4,53,39.4,52.8,38.4z M40,21.4L40,21.4c-0.1-0.1-0.1-0.2,0-0.2
	s0.1,0,0.1,0.1C40.2,21.3,40.1,21.3,40,21.4z"/>
</svg>
